<?xml version="1.0" encoding="utf-8"?>
<!-- Generator: Adobe Illustrator 19.1.0, SVG Export Plug-In . SVG Version: 6.00 Build 0)  -->
<svg version="1.1" id="Layer_3" xmlns="http://www.w3.org/2000/svg" xmlns:xlink="http://www.w3.org/1999/xlink" x="0px" y="0px"
	 viewBox="0 0 628.6 74" style="enable-background:new 0 0 628.6 74;" xml:space="preserve">
<style type="text/css">
	.st0{fill:#004B8D;}
	.st1{fill:#FDB913;}
	.st2{fill:none;}
	.st3{fill:#FFFFFF;}
</style>
<g>
	<g>
		<g>
			<path class="st0" d="M139.5,18.9c0-2.5-0.2-3.2-1.9-3.3l-1.2-0.1c-0.2-0.2-0.1-0.8,0-0.8c2-0.2,4.6-0.3,8.1-0.3
				c2.4,0,4.6,0.2,6.3,0.9c1.6,0.7,2.9,2.1,2.9,4.2c0,2.4-1.6,3.7-3.8,4.6c0,0.3,0.3,0.4,0.7,0.5c2,0.3,5,2,5,5.6
				c0,3.9-3.2,6.6-10,6.6c-1.1,0-2.9-0.1-4.5-0.1c-1.7,0-2.9,0.1-4.3,0.1c-0.2-0.1-0.3-0.6-0.1-0.8l0.7-0.1c2-0.3,2.1-0.7,2.1-4.2
				V18.9z M142.6,23.4c0,0.9,0,1,2,0.9c3.8-0.1,5.9-1.2,5.9-4.3c0-3.3-2.7-4.6-5.6-4.6c-0.8,0-1.4,0.1-1.7,0.2
				c-0.4,0.1-0.5,0.3-0.5,0.9V23.4z M142.6,31.3c0,1.2,0.1,2.9,0.8,3.7c0.7,0.8,1.8,0.9,3,0.9c3.3,0,5.9-1.4,5.9-4.7
				c0-2.7-1.5-5.8-7.5-5.8c-2,0-2.2,0.2-2.2,0.9V31.3z"/>
			<path class="st0" d="M181.7,22.3c0-3.1-0.1-3.6-2-3.7l-0.8-0.1c-0.2-0.1-0.1-0.6,0.1-0.7c1.6,0.1,2.7,0.1,4,0.1
				c1.3,0,2.4,0,4-0.1c0.2,0.1,0.3,0.6,0.1,0.7l-0.8,0.1c-1.9,0.1-2,0.6-2,3.7v10.3c0,3.1,0.1,3.5,2,3.7l0.8,0.1
				c0.2,0.1,0.1,0.6-0.1,0.7c-1.6-0.1-2.7-0.1-4-0.1c-1.3,0-2.4,0-4,0.1c-0.2-0.1-0.3-0.5-0.1-0.7l0.8-0.1c1.9-0.2,2-0.6,2-3.7V22.3
				z"/>
			<path class="st0" d="M199.5,32.6c0,3,0.1,3.5,1.8,3.6l1,0.1c0.2,0.1,0.1,0.6-0.1,0.7c-1.7-0.1-2.7-0.1-3.9-0.1
				c-1.2,0-2.3,0-4.2,0.1c-0.2-0.1-0.2-0.6,0-0.7l1.1-0.1c1.7-0.1,1.9-0.6,1.9-3.6V19.7c0-0.9,0-0.9-0.9-0.9h-1.7
				c-1.3,0-2.9,0.1-3.7,0.7c-0.7,0.6-1,1.3-1.4,2c-0.2,0.2-0.7,0-0.8-0.2c0.5-1.3,0.9-3.1,1.1-4.3c0.1-0.1,0.5-0.1,0.6,0
				c0.2,0.9,1.2,0.9,2.6,0.9h12.2c1.6,0,1.9-0.1,2.3-0.8c0.1-0.1,0.5,0,0.5,0.1c-0.3,1.2-0.5,3.5-0.5,4.4c-0.1,0.2-0.6,0.2-0.8,0.1
				c-0.1-0.7-0.3-1.8-0.8-2.1c-0.7-0.5-1.8-0.7-3.5-0.7h-2.1c-0.9,0-0.9,0-0.9,1V32.6z"/>
			<path class="st0" d="M212.4,22.3c0-3.1-0.1-3.6-2-3.7l-0.8-0.1c-0.2-0.1-0.1-0.6,0.1-0.7c1.6,0.1,2.7,0.1,4,0.1
				c1.3,0,2.4,0,4-0.1c0.2,0.1,0.3,0.6,0.1,0.7l-0.8,0.1c-1.9,0.1-2,0.6-2,3.7v10.3c0,3.1,0.1,3.5,2,3.7l0.8,0.1
				c0.2,0.1,0.1,0.6-0.1,0.7c-1.6-0.1-2.7-0.1-4-0.1c-1.3,0-2.4,0-4,0.1c-0.2-0.1-0.3-0.5-0.1-0.7l0.8-0.1c1.9-0.2,2-0.6,2-3.7V22.3
				z"/>
			<path class="st0" d="M226.8,37.3c-2.9,0-4.7-0.8-5.3-1.1c-0.4-0.6-0.9-2.7-0.9-4c0.2-0.2,0.7-0.3,0.8-0.1
				c0.5,1.5,1.9,4.3,5.9,4.3c2.9,0,4.3-1.6,4.3-3.3c0-1.3-0.3-2.7-2.8-4l-3.2-1.8c-1.7-1-3.7-2.6-3.7-5c0-2.7,2.5-5,7-5
				c1.1,0,2.3,0.2,3.2,0.4c0.4,0.1,0.9,0.2,1.2,0.2c0.3,0.7,0.6,2.3,0.6,3.5c-0.1,0.2-0.7,0.3-0.9,0.1c-0.4-1.4-1.4-3.3-4.6-3.3
				c-3.3,0-4.1,1.9-4.1,3.2c0,1.7,1.6,2.9,2.9,3.6l2.7,1.4c2.1,1.1,4.3,2.8,4.3,5.5C234,35.2,231.2,37.3,226.8,37.3z"/>
			<path class="st0" d="M243.9,27.6c-1.5,0-1.6,0.1-1.6,0.9v4.1c0,3,0.2,3.4,1.9,3.6l0.9,0.1c0.2,0.1,0.1,0.6-0.1,0.7
				c-1.7-0.1-2.7-0.1-3.9-0.1c-1.3,0-2.4,0.1-3.6,0.1c-0.2-0.1-0.2-0.5-0.1-0.7l0.5-0.1c1.7-0.3,1.8-0.6,1.8-3.6V22.2
				c0-3-0.2-3.5-1.8-3.6l-0.8-0.1c-0.2-0.1-0.1-0.6,0.1-0.7c1.5,0,2.6,0.1,3.9,0.1c1.2,0,2.3,0,3.6-0.1c0.2,0.1,0.2,0.6,0.1,0.7
				l-0.6,0.1c-1.8,0.2-1.9,0.6-1.9,3.6v3.3c0,0.9,0.1,0.9,1.6,0.9h8.9c1.5,0,1.6,0,1.6-0.9v-3.3c0-3-0.1-3.5-1.9-3.6l-0.6-0.1
				c-0.2-0.1-0.1-0.6,0.1-0.7c1.4,0.1,2.5,0.1,3.8,0.1c1.2,0,2.3,0,3.7-0.1c0.2,0.1,0.3,0.6,0.1,0.7l-0.7,0.1
				c-1.8,0.2-1.9,0.6-1.9,3.6v10.4c0,3,0.1,3.4,1.9,3.6l0.7,0.1c0.2,0.1,0.1,0.6-0.1,0.7c-1.5-0.1-2.6-0.1-3.8-0.1
				c-1.3,0-2.4,0-3.8,0.1c-0.2-0.1-0.3-0.5-0.1-0.7l0.6-0.1c1.9-0.3,1.9-0.6,1.9-3.6v-4.1c0-0.9-0.1-0.9-1.6-0.9H243.9z"/>
			<path class="st0" d="M121.7,43.4c2.6-2,5.8-3,9.5-3c1.9,0,4.6,0.4,6.2,0.8c0.4,0.1,0.7,0.2,1,0.1c0,0.8,0.2,3,0.5,5.1
				c-0.2,0.2-0.7,0.3-0.9,0.1c-0.5-2.4-2.1-5.1-7.2-5.1c-5.4,0-9.9,3.4-9.9,10.6c0,7.3,4.7,11.4,10.4,11.4c4.5,0,6.5-2.9,7.3-5
				c0.2-0.2,0.8-0.1,0.9,0.1c-0.2,1.8-1.2,4.1-1.7,4.8c-0.4,0.1-0.8,0.2-1.2,0.3c-0.8,0.3-3.3,0.8-5.5,0.8c-3.2,0-6.2-0.6-8.7-2.3
				c-2.8-1.9-5-5.1-5-9.6C117.3,48.8,119,45.4,121.7,43.4z"/>
			<path class="st0" d="M140.8,54.7c0-5.8,4.6-10.2,10.8-10.2c7,0,10.5,4.8,10.5,9.9c0,5.8-4.7,10.1-10.5,10.1
				C144.9,64.5,140.8,59.9,140.8,54.7z M159.1,55.3c0-4.8-2.2-9.9-8-9.9c-3.2,0-7.3,2.1-7.3,8.4c0,4.3,2.2,9.8,8.2,9.8
				C155.7,63.6,159.1,61,159.1,55.3z"/>
			<path class="st0" d="M196.4,52.2c0-1.8-0.1-5.1-0.6-6c-0.2-0.3-0.8-0.5-1.5-0.6l-0.8-0.1c-0.2-0.2-0.1-0.6,0.1-0.7
				c1.2,0.1,2.3,0.1,3.5,0.1c1.3,0,2.1,0,3.2-0.1c0.2,0.1,0.2,0.5,0.1,0.7l-0.7,0.1c-0.8,0.1-1.3,0.3-1.5,0.7
				c-0.4,1-0.4,4.3-0.4,5.9v3.3c0,2.5-0.4,5.2-2.1,6.9c-1.3,1.4-3.6,2.1-5.8,2.1c-2.1,0-4.2-0.4-5.7-1.6c-1.6-1.3-2.4-3.4-2.4-6.8
				v-6.8c0-3-0.1-3.5-1.8-3.6l-0.8-0.1c-0.2-0.1-0.1-0.6,0.1-0.7c1.5,0.1,2.6,0.1,3.8,0.1c1.3,0,2.3,0,3.8-0.1
				c0.2,0.1,0.2,0.6,0.1,0.7l-0.7,0.1c-1.8,0.1-1.8,0.6-1.8,3.6v6.2c0,4.7,1.5,7.7,6.2,7.7c4.4,0,6.1-3.3,6.1-7.7V52.2z"/>
			<path class="st0" d="M232,48.6c0-2.2-0.1-2.7-1.7-2.8l-1.1-0.1c-0.1-0.1-0.2-0.7,0-0.7c1.8-0.1,4.1-0.2,7.3-0.2
				c2.1,0,4.2,0.1,5.7,0.8c1.5,0.6,2.6,1.8,2.6,3.6c0,2.1-1.4,3.2-3.5,4c0,0.3,0.3,0.4,0.6,0.4c1.8,0.3,4.5,1.8,4.5,4.9
				c0,3.4-2.9,5.7-9,5.7c-1,0-2.6-0.1-4.1-0.1c-1.5,0-2.6,0.1-3.9,0.1c-0.2-0.1-0.3-0.6-0.1-0.7l0.6-0.1c1.8-0.3,1.9-0.6,1.9-3.6
				V48.6z M234.7,52.5c0,0.8,0,0.9,1.8,0.8c3.5-0.1,5.3-1,5.3-3.7c0-2.9-2.5-3.9-5-3.9c-0.7,0-1.3,0.1-1.6,0.2
				c-0.3,0.1-0.5,0.2-0.5,0.8V52.5z M234.7,59.2c0,1.1,0.1,2.5,0.7,3.2c0.6,0.7,1.7,0.8,2.7,0.8c3,0,5.3-1.2,5.3-4.1
				c0-2.3-1.4-5-6.7-5c-1.8,0-2,0.2-2,0.8V59.2z"/>
			<g>
				<path class="st0" d="M176.8,36.3l-0.8-0.1c-0.2,0-0.3,0-0.4-0.1c-1.2-0.2-1.6-1.3-2.2-2.2l-2.8-4.8c-0.5-0.8-1-1.9-2.1-2
					c2.8-0.3,5.4-2,5.4-4.8c0-3.3-3.2-4.7-6.5-4.7c-2,0-3.7,0.1-5.7,0.1c-1.1,0-2.4-0.1-3.5-0.1c-0.6,0-0.6,0.1-0.6,0.5
					c0,0.5,0.2,0.4,0.9,0.4c2.3,0.1,2.2,0.6,2.2,2.5v12.7c0,1.8,0.2,2.4-1.7,2.5c0,0-0.3,0-0.5,0l-0.8,0.1c-0.2,0.2-0.1,0.6,0.1,0.7
					c0.4,0,1.2,0,1.2,0c1.1,0,2.1-0.1,3.2-0.1c1.1,0,2.1,0.1,3.1,0.1v0c0.4,0,0.8,0,1.2,0c0.2-0.1,0.3-0.5,0.1-0.7l-0.8-0.1
					c-0.2,0-0.5,0-0.5,0c-1.9-0.1-1.8-0.7-1.8-2.5v-4.8c0-0.3,0-1,0.2-1.2c0.2-0.2,0.5-0.2,0.8-0.2c2.6,0,2.6,0.2,3.8,2.4l3.4,6
					c0.3,0.5,0.5,1.1,1.2,1.1h2.9c0.4,0,0.8,0,1.2,0C176.9,37,177,36.5,176.8,36.3z M165.1,26.8c-0.6,0-1.7,0.2-1.7-0.6v-5.5
					c0-2.2,0.1-2.5,2.7-2.5c3,0,4.9,1.5,4.9,4.4c0,1.2-0.4,2.4-1.6,3.2C168.1,26.7,166.7,26.8,165.1,26.8z"/>
			</g>
			<g>
				<path class="st0" d="M165.8,49.3c0-3-0.1-3.5-2.1-3.6l-0.8-0.1c-0.2-0.1-0.1-0.6,0.1-0.7c1.8,0.1,2.9,0.1,4.1,0.1
					c1.2,0,2.3,0,3.9-0.1c0.2,0.1,0.3,0.6,0.1,0.7l-0.8,0.1c-1.9,0.1-1.9,0.6-1.9,3.6v10.1c0,1.8,0.1,2.6,0.7,3.1
					c0.3,0.3,1,0.7,3.5,0.7c2.7,0,3.4-0.1,3.9-0.4c0.6-0.3,1.5-1.4,2.1-2.9c0.2-0.1,0.8,0,0.8,0.2c0,0.3-0.9,3.3-1.3,4
					c-1.6-0.1-4.6-0.1-7.9-0.1h-2.9c-1.3,0-2.4,0-4.1,0.1c-0.2-0.1-0.3-0.5-0.1-0.7l1-0.1c1.8-0.2,1.9-0.6,1.9-3.6V49.3z"/>
				<path class="st0" d="M250.9,49.4c0-3.1-0.1-3.6-1.9-3.7l-0.8-0.1c-0.2-0.1-0.1-0.6,0.1-0.7c1.6,0.1,2.6,0.1,3.9,0.1
					c1.2,0,2.3,0,3.9-0.1c0.2,0.1,0.3,0.6,0.1,0.7l-0.8,0.1c-1.8,0.1-1.9,0.6-1.9,3.7v10.3c0,3.1,0.1,3.5,1.9,3.7l0.8,0.1
					c0.2,0.1,0.1,0.6-0.1,0.7c-1.6-0.1-2.6-0.1-3.9-0.1c-1.3,0-2.4,0-3.9,0.1c-0.2-0.1-0.2-0.5-0.1-0.7l0.8-0.1
					c1.8-0.2,1.9-0.6,1.9-3.7V49.4z"/>
				<path class="st0" d="M226,63.3c-0.2,0-0.5,0-0.5,0c-0.3,0-0.6-0.1-0.9-0.3c-0.4-0.4-0.4-1.7-0.4-2.1V48.2c0-0.6-0.1-1.7,0.3-2.2
					c0.2-0.2,0.6-0.3,1-0.3v0c0.2,0,0.2,0,0.4,0l0.8-0.1c0.2-0.1,0.1-0.6-0.1-0.7c-0.4,0-0.8,0-1.2,0v0h-3.4c-0.4,0-0.7,0-0.9,0.4
					l-6.9,14.5l-6.1-14c-0.2-0.5-0.2-0.9-0.9-0.9h-3.5c-0.4,0-0.8,0-1.2,0c-0.2,0.1-0.3,0.6-0.1,0.7l0.8,0.1c0.2,0,0.5,0,0.5,0
					c1.3,0.1,1.4,0.4,1.3,1.8l-1,13.6c-0.1,1.4-0.2,2.1-1.6,2.2c0,0-0.3,0-0.5,0.1l-0.8,0.1c-0.2,0.2-0.1,0.6,0.1,0.7
					c0.4,0,1.2,0,1.2,0c0.7,0,1.5-0.1,2.2-0.1c0.8,0,1.6,0.1,2.4,0.1l0,0c0.4,0,0.8,0,1.2,0c0.2-0.1,0.3-0.5,0.1-0.7l-0.8-0.1
					c-0.2,0-0.4,0-0.4,0c-2.1-0.1-2-1.6-1.9-3.4l1-12.6h0.2l6.6,15.5c0.1,0.2,0.2,0.6,0.5,0.6c0.3,0,0.4-0.3,0.5-0.6l7.5-15.9h0.2
					v13.9c0,0.6,0.1,1.7-0.5,2.1c-0.3,0.2-1.3,0.4-1.3,0.4c-0.1,0-0.3,0-0.4,0.1l-0.8,0.1c-0.2,0.2-0.1,0.6,0.1,0.7
					c0.4,0,1.2,0,1.2,0c1.1,0,2.2-0.1,3.3-0.1c0.8,0,2.3,0.1,2.3,0.1c0.4,0,0.8,0.1,1.2,0.1c0.2-0.1,0.3-0.5,0.1-0.7L226,63.3z"/>
				<g>
					<path class="st0" d="M278.1,63.4l-0.1-0.1c-0.2,0-0.3,0-0.4-0.1c-1.3-0.3-1.7-1.8-2.2-2.9l-6.4-15.2c-0.1-0.2-0.2-0.6-0.4-0.6
						c-0.3,0-0.4,0.4-0.5,0.7l-6.1,15.2c-0.2,0.6-0.8,2-1.2,2.4c-0.3,0.3-0.7,0.4-1.2,0.4c0,0-0.3,0-0.5,0.1l-0.8,0.1
						c-0.2,0.2-0.1,0.6,0.1,0.7c0.4,0,1.2,0,1.2,0c0.8,0,1.7-0.1,2.5-0.1c0.7,0,1.4,0.1,2.1,0.1c0,0,0.8,0,1.2,0
						c0.2-0.1,0.3-0.5,0.1-0.7l-0.8-0.1c-0.2,0-0.4,0-0.4,0c-0.7-0.1-1.7-0.2-1.7-1c0-0.5,0.3-1.2,0.4-1.7l1-2.3
						c0.5-1.1,0.3-1.2,1.6-1.2h4.3c1.5,0,1.3,0,2,1.5l1,2.3c0.2,0.4,0.4,1.1,0.4,1.5c0,0.8-0.8,0.8-1.6,0.9c0,0-0.3,0-0.5,0
						l-0.8,0.1c-0.2,0.2-0.1,0.6,0.1,0.7c0.4,0,1.2,0,1.2,0c0.9,0,1.8-0.1,2.7-0.1c1.1,0,2.2,0.1,3.3,0.1v0c0.4,0,0.1,0,0.5,0
						C278.2,64.1,278.3,63.6,278.1,63.4z M269.6,56.3h-3.8c-0.1,0-1.2,0.1-1.2-0.2c0-0.1,0.1-0.3,0.1-0.4l2.3-5.6
						c0.1-0.2,0.3-0.9,0.6-0.9c0.2,0,0.5,0.8,0.5,0.9l2.2,5.2c0,0.1,0.2,0.6,0.2,0.7C270.6,56.4,269.8,56.3,269.6,56.3z"/>
				</g>
			</g>
		</g>
	</g>
	<rect x="296.2" class="st1" width="1.1" height="64.6"/>
	<g id="WelcomeBC_1_">
		<path class="st1" d="M593.5,22.6c5.1-4,11.5-5.9,18.7-5.9c3.8,0,9,0.8,12.3,1.7c0.8,0.2,1.3,0.3,1.9,0.3c0.1,1.6,0.4,6,1,10.2
			c-0.3,0.5-1.4,0.6-1.9,0.1c-1-4.7-4.2-10.1-14.2-10.1c-10.6,0-19.7,6.7-19.7,21.1c0,14.6,9.2,22.6,20.6,22.6
			c9,0,12.9-5.8,14.5-9.9c0.5-0.3,1.5-0.2,1.8,0.3c-0.5,3.6-2.3,8.2-3.3,9.5c-0.8,0.1-1.7,0.4-2.4,0.7c-1.5,0.6-6.5,1.6-11,1.6
			c-6.2,0-12.2-1.3-17.3-4.7c-5.6-3.8-9.9-10.1-9.9-19.1C584.7,33.3,588.2,26.7,593.5,22.6z"/>
		<path class="st1" d="M551.4,26.8c0-5.1-0.3-6.5-3.4-6.7l-2.2-0.2c-0.6-0.4-0.5-1.5,0.1-1.7c3.8-0.3,8.5-0.6,14.9-0.6
			c4.4,0,8.5,0.3,11.7,1.9c3,1.5,5.3,4.2,5.3,8.7c0,5-2.9,7.6-7.1,9.5c0,0.7,0.6,0.9,1.3,1c3.8,0.7,9.3,4.2,9.3,11.6
			c0,8.1-6,13.5-18.5,13.5c-2,0-5.4-0.2-8.3-0.2c-3.1,0-5.4,0.1-8,0.2c-0.4-0.2-0.6-1.3-0.1-1.7l1.3-0.2c3.7-0.6,3.8-1.4,3.8-8.7
			V26.8z M557.1,36.1c0,1.9,0.1,2.1,3.6,1.9c7.1-0.3,10.9-2.4,10.9-8.9c0-6.8-5.1-9.4-10.3-9.4c-1.5,0-2.6,0.1-3.2,0.4
			c-0.7,0.2-1,0.6-1,1.8V36.1z M557.1,52.2c0,2.5,0.1,6,1.5,7.6c1.3,1.6,3.4,1.9,5.5,1.9c6.2,0,10.9-2.8,10.9-9.7
			c0-5.5-2.8-11.9-13.8-11.9c-3.7,0-4,0.4-4,1.8V52.2z"/>
		<path class="st0" d="M527,45.9c-1.8,0-1.9,0.1-1.9,1.9c0,7,4.1,13,11.5,13c2.3,0,4.2-0.7,6.4-3.4c0.7-0.2,1.2,0.2,1.2,0.8
			c-2.3,4.7-7.3,6.5-10.9,6.5c-4.5,0-8.1-1.9-10.1-4.6c-2.1-2.7-2.9-6-2.9-9c0-8.5,5.6-15.7,14-15.7c6,0,9.9,4.1,9.9,8.3
			c0,1-0.1,1.5-0.3,1.8c-0.2,0.4-1.2,0.5-4.1,0.5H527z M531.3,43.8c5.1,0,6.7-0.3,7.2-0.7c0.2-0.1,0.4-0.4,0.4-1.3
			c0-1.9-1.3-4.4-5.3-4.4c-4.1,0-7.6,3.7-7.7,6c0,0.1,0,0.3,0.5,0.3H531.3z"/>
		<path class="st0" d="M510.1,45.8c0-4.7-2.1-7.2-6.5-7.2c-2.6,0-4.8,1.2-5.8,2.4c-0.8,1-1,1.7-1,4.2v10.6c0,5,0.1,5.7,2.6,6
			l1.5,0.2c0.5,0.3,0.3,1.5-0.1,1.7c-2.1-0.1-4.1-0.2-6.5-0.2c-2.5,0-4.4,0.1-6.3,0.2c-0.5-0.2-0.6-1.4-0.1-1.7l1.3-0.2
			c2.6-0.4,2.6-1,2.6-6V45.8c0-4.7-2.1-7.2-6.4-7.2c-2.8,0-4.8,1.2-5.8,2.5c-0.7,0.8-1,1.7-1,4v10.8c0,5,0.1,5.6,2.6,6l1.3,0.2
			c0.5,0.3,0.3,1.5-0.1,1.7c-1.9-0.1-3.9-0.2-6.3-0.2c-2.5,0-4.6,0.1-6.7,0.2c-0.5-0.2-0.6-1.4-0.1-1.7l1.7-0.2c2.6-0.3,2.6-1,2.6-6
			V43.7c0-2.7,0-3.1-1.9-4.3l-0.6-0.4c-0.3-0.3-0.3-1,0.1-1.2c1.6-0.6,5.6-2.4,6.9-3.4c0.3,0,0.6,0.1,0.8,0.5
			c-0.1,1.6-0.1,2.6-0.1,3.3c0,0.4,0.3,0.8,0.8,0.8c2.6-1.9,5.9-3.5,9.2-3.5c3.5,0,5.4,1.2,7.4,4.1c0.6,0.1,1.1-0.1,1.7-0.6
			c2.8-1.9,6.2-3.5,9.4-3.5c5.6,0,8.3,3.8,8.3,8.6v11.9c0,5,0.1,5.7,2.6,6l1.7,0.2c0.5,0.3,0.3,1.5-0.1,1.7
			c-2.3-0.1-4.3-0.2-6.7-0.2c-2.5,0-4.4,0.1-6.3,0.2c-0.5-0.2-0.6-1.4-0.1-1.7l1.3-0.2c2.6-0.4,2.6-1,2.6-6V45.8z"/>
		<path class="st0" d="M467.6,49.7c0,8.7-6,14.9-14.7,14.9c-8,0-14.2-5.6-14.2-14.3c0-8.7,6.6-15,14.8-15
			C461.2,35.3,467.6,41.1,467.6,49.7z M452.6,37.4c-4.6,0-8,4.4-8,12c0,6.3,2.8,13.1,9,13.1c6.1,0,8-6.4,8-11.7
			C461.6,44.9,459.2,37.4,452.6,37.4z"/>
		<path class="st0" d="M435.6,36.5c0.6,0.5,1,1.6,1,2.8c0,1.3-0.7,2.6-1.5,2.6c-0.3,0-0.7-0.1-1-0.5c-1.5-1.9-4.1-3.7-6.9-3.7
			c-4.9,0-9.6,3.8-9.6,11.2c0,5.4,3.7,11.9,11.2,11.9c4,0,6.1-1.8,7.7-4.2c0.6-0.1,1.2,0.3,1.3,1c-2.4,5.1-7.6,7.1-11.6,7.1
			c-3.7,0-7.1-1.2-9.5-3.5c-2.4-2.4-4-5.8-4-10.3c0-7.5,5.3-15.5,16.8-15.5C431,35.3,433.7,35.6,435.6,36.5z"/>
		<path class="st0" d="M407.5,55.9c0,5,0.1,5.7,2.6,6l1.7,0.2c0.5,0.3,0.3,1.5-0.1,1.7c-2.3-0.1-4.3-0.2-6.7-0.2
			c-2.5,0-4.6,0.1-6.7,0.2c-0.5-0.2-0.6-1.4-0.1-1.7l1.6-0.2c2.6-0.3,2.6-1,2.6-6V24.5c0-4.1-0.1-4.5-2.2-5.8l-0.7-0.4
			c-0.3-0.2-0.3-1.2,0-1.4c1.7-0.6,5-1.6,7.5-2.9c0.3,0,0.6,0.1,0.7,0.4c-0.1,2.1-0.2,5.6-0.2,8.6V55.9z"/>
		<path class="st0" d="M380.1,45.9c-1.8,0-1.9,0.1-1.9,1.9c0,7,4.1,13,11.5,13c2.3,0,4.2-0.7,6.4-3.4c0.7-0.2,1.2,0.2,1.3,0.8
			c-2.3,4.7-7.3,6.5-10.9,6.5c-4.5,0-8.1-1.9-10.1-4.6c-2.1-2.7-2.9-6-2.9-9c0-8.5,5.6-15.7,14-15.7c6,0,9.9,4.1,9.9,8.3
			c0,1-0.1,1.5-0.3,1.8c-0.2,0.4-1.2,0.5-4.1,0.5H380.1z M384.4,43.8c5.1,0,6.7-0.3,7.2-0.7c0.2-0.1,0.4-0.4,0.4-1.3
			c0-1.9-1.3-4.4-5.3-4.4c-4.1,0-7.6,3.7-7.7,6c0,0.1,0,0.3,0.5,0.3H384.4z"/>
		<path class="st0" d="M314.3,19.3c-0.4-0.4-0.3-1.4,0.2-1.7c1.9,0.1,5,0.2,7.2,0.2c1.9,0,5.5-0.1,7.9-0.2c0.6,0.2,0.6,1.2,0.1,1.7
			l-1.6,0.1c-1.5,0.1-2.3,0.6-2.3,1.2c0,0.8,1.5,4.4,3.6,9.3c3.9,8.7,8,17.4,12,25.9c1.7-3.5,3.5-7.4,5.3-11.3
			c0.6-1.3,1.1-2.5,1.1-2.8s-0.2-1-0.6-1.8c-2.4-5.6-5-11.1-7.6-16.7c-1-2.2-2.1-3.6-4.4-3.8l-1.7-0.1c-0.5-0.6-0.4-1.4,0.1-1.7
			c2,0.1,4.7,0.2,7.4,0.2c3.5,0,6-0.1,7.6-0.2c0.5,0.2,0.6,1.1,0.1,1.7l-1.8,0.1c-2.7,0.2-2.8,0.7-1.5,3.8c1.5,3.4,3.4,7.8,5.3,12.1
			c1.3-2.7,2.6-5.3,4.1-9.1c2.5-5.9,2.2-6.7-0.1-6.8l-2.1-0.1c-0.5-0.7-0.3-1.5,0.1-1.7c1.9,0.1,4,0.2,6.5,0.2
			c2.3,0,5.1-0.1,6.7-0.2c0.5,0.2,0.6,1.1,0.1,1.7l-2,0.1c-2.9,0.2-4.2,3.3-5.7,6.2c-1.5,2.6-4.4,8.6-5.4,11
			c-0.3,0.7-0.6,1.4-0.6,1.7c0,0.3,0.1,0.8,0.5,1.7c2.4,5.3,4.8,10.6,7.1,15.8c2.2-4.9,4.2-9.7,6.2-14.7c1.4-3.3,5.1-12.6,5.6-13.8
			c0.9-2.5,2.1-5.5,2.1-6.3c0-1-0.8-1.5-2.3-1.6l-2-0.1c-0.6-0.6-0.5-1.4,0.1-1.7c2.6,0.1,4.5,0.2,6.7,0.2c2.6,0,4.7-0.1,6.5-0.2
			c0.6,0.2,0.6,1.1,0.1,1.7l-1.3,0.1c-3.5,0.3-4.1,2.4-8.3,12.1l-5.1,11.7c-3.1,7.1-5.8,13.9-8.7,21.3c-0.2,0.1-0.5,0.2-0.8,0.2
			c-0.3,0-0.7-0.1-1-0.2c-2.2-6.2-6.3-14.9-8.4-19.7c-2.5,5.1-6.7,14-8.7,19.7c-0.2,0.1-0.5,0.2-0.8,0.2c-0.3,0-0.7-0.1-1-0.2
			c-1.2-2.9-3.9-9.2-4.8-11.2c-4.4-9.7-8.7-19.3-13.3-29c-1.3-2.8-2.2-4.7-5.1-5L314.3,19.3z"/>
	</g>
	<rect x="-28" y="-27.1" class="st2" width="683.3" height="128"/>
	<path class="st3" d="M15.8,62.9c17.9,0,42.5,10.1,60.5,10.1c12.8,0,25.3-3.4,32.4-8.4c0.5-3,0.8-6,0.8-9.1
		c0-30-24.3-54.3-54.3-54.3C25,1.1,0.7,25.4,0.7,55.4c0,3.1,0.3,6.1,0.7,9C3.4,64,10.1,62.9,15.8,62.9z"/>
	<g>
		<polygon class="st1" points="90.1,42.9 92.3,43.8 97,40.4 		"/>
		<path class="st1" d="M10.1,39.2l-5.6-2l0.3-0.7l6.4,2.1l0,0l0.8-0.5l0.3-0.2L5.3,35l0.3-0.7l15.5,6.3l0.5-0.2L6.3,32.8l0.3-0.7
			l16.3,7.6l0.2-0.1L7.3,30.6l0.3-0.7l22.8,12.4c0.2-0.3,0.6-1,0.8-1.3c-8.7-8.1-17-14.3-17-14.3s8.6,5.8,19.2,11.1
			c0.4-0.4,0.6-0.8,1-1.2L15,19.6l0.5-0.5l15.7,13.4L16.7,17.8l0.5-0.6L33.5,33L18.3,16.2l0.6-0.5l14,15L20.1,14.6l0.6-0.5l16.4,20
			c0.4-0.4,0.8-0.6,1.2-1c-5-10.7-10.4-19.5-10.4-19.5s5.8,8.5,13.6,17.4c0.5-0.3,1-0.5,1.5-0.8l-0.1-0.1l-11.5-23L32,6.9l9.5,18.3
			l-8-18.9l0.7-0.3l9.2,20.7L35.7,5.3L36.4,5l7.4,19.2L38,4.5l0.7-0.3l7.7,24.5l0,0.1l0,0c0.5-0.2,1-0.3,1.6-0.5
			c-0.6-11.8-2.3-21.8-2.3-21.8s2.2,10,6,21.1c0.5-0.1,1.1-0.1,1.6-0.2l0,0h0.1l0-0.1L51.2,1.7l0.7,0l2,20.5L53.6,1.7l0.8,0
			l0.8,22.7l0.8-22.7l0.8,0l-0.3,20.6l2-20.5l0.7,0l-2.1,25.6l0,0.1h0l0,0h0c0.5,0,1.1,0.1,1.6,0.2c3.9-11.1,6-21.1,6-21.1
			s-1.7,10-2.3,21.8c0.5,0.1,1,0.3,1.6,0.5l7.6-24.4l0.7,0.3l-5.8,19.8l7.4-19.2l0.7,0.3l-7.8,21.3L76,6l0.7,0.3l-8,18.9L78.2,7
			l0.7,0.3L67.4,30.1l0,0c0.5,0.2,0.9,0.5,1.4,0.7c7.8-8.9,13.5-17.3,13.5-17.3S77,22.2,72,32.9c0.4,0.3,0.9,0.7,1.3,1l16.2-19.8
			l0.6,0.5L77.3,30.9l14-15l0.6,0.5L76.7,33.2L93,17.4l0.5,0.6L79,32.5l15.7-13.4l0.5,0.5L76,36.6l0,0c0.3,0.4,0.7,0.8,1,1.2
			c10.5-5.3,19.1-11,19.1-11s-8.3,6.1-16.9,14.1c0.2,0.4,0.6,1.1,0.8,1.5l22.4-12.2l0.3,0.7L84.9,41l18.6-8.7l0.3,0.7l-17.4,8.5
			l0.3,0.1l17.7-7.1l0.3,0.7l-16.4,7l0.3,0.1l10.9-3.6l1.6-1.2l0.5,0.4l3.6-1.2l0.3,0.7l-3.1,1.1l4.5,3.4l1.4,0.8
			C102.7,18.5,81,0.5,55,0.5C28.6,0.5,6.5,19.2,1.2,44c0.1,0,0.1-0.1,0.2-0.1l0.7-0.3l0.4-0.2L10.1,39.2z"/>
	</g>
	<path class="st0" d="M0.9,65.6c0,0,8.1-1.6,14.9-1.6C33.7,64,58.3,74,76.3,74c13.1,0,26-3.6,32.9-8.9c0.5-3.1,0.8-6.3,0.8-9.6
		c0-4.4-0.5-8.7-1.5-12.8l-7.5-4.2l-8.8,6.1l-5.9-2.3c-2,1-14.3,9.2-14.3,9.2l-4.7-3.4l-5.1-1l-6.8-4.9l-7.8,5.3c0,0-8.7,5-9,5
		c-0.3,0-10.4-8-10.4-8l-4.7-4.9c-0.8,0.5-4,2-4,2l-0.2,0l-3.1-1l-3.7-2L1.4,43.9c-0.1,0-0.1,0.1-0.2,0.1C0.4,47.7,0,51.6,0,55.6
		C0,59,0.3,62.3,0.9,65.6z"/>
</g>
</svg>
