<?xml version="1.0" encoding="utf-8"?>
<!-- Generator: Adobe Illustrator 18.0.0, SVG Export Plug-In . SVG Version: 6.00 Build 0)  -->
<!DOCTYPE svg PUBLIC "-//W3C//DTD SVG 1.1//EN" "http://www.w3.org/Graphics/SVG/1.1/DTD/svg11.dtd">
<svg version="1.1" id="Layer_1" xmlns="http://www.w3.org/2000/svg" xmlns:xlink="http://www.w3.org/1999/xlink" x="0px" y="0px"
	 width="27px" height="60px" viewBox="0 0 27 60" style="enable-background:new 0 0 27 60;" xml:space="preserve">
<style type="text/css">
	.st0{fill:#90A0B9;}
</style>
<g>
	<g>
		<path class="st0" d="M13.2,60c-0.1,0-0.2,0-0.2-0.1c-0.1-0.1,0-0.3,0.1-0.3l7.7-5.2l-7.9,4.6c-0.1,0.1-0.3,0-0.3-0.1
			c-0.1-0.1,0-0.3,0.1-0.3l6.4-4.2l-6.2,3.6c-0.1,0.1-0.3,0-0.3-0.1c-0.1-0.1,0-0.3,0.1-0.3l6.8-4.5l-6.6,3.8
			c-0.1,0.1-0.3,0-0.3-0.1c-0.1-0.1,0-0.3,0.1-0.3l8.5-5.8l-8.2,4.8c-0.1,0.1-0.3,0-0.3-0.1c-0.1-0.1,0-0.3,0.1-0.3l7.9-5.4
			l-7.7,4.5c-0.1,0.1-0.3,0-0.3-0.1c-0.1-0.1,0-0.3,0.1-0.3l6.7-4.4L12.9,53c-0.1,0.1-0.3,0-0.3-0.1c-0.1-0.1,0-0.3,0.1-0.3l5.8-3.8
			L12.9,52c-0.1,0.1-0.3,0-0.3-0.1c-0.1-0.1,0-0.3,0.1-0.3l6-4L12.9,51c-0.1,0.1-0.3,0-0.3-0.1c-0.1-0.1,0-0.3,0.1-0.3l7.4-4.9
			l-7.1,4.1c-0.1,0.1-0.3,0-0.3-0.1c-0.1-0.1,0-0.3,0.1-0.3l6.2-4.1l-6,3.5c-0.1,0.1-0.3,0-0.3-0.1c-0.1-0.1,0-0.3,0.1-0.3l6.3-4.1
			l-6.1,3.5c-0.1,0.1-0.3,0-0.3-0.1c-0.1-0.1,0-0.3,0.1-0.3l4.5-2.9L12.9,47c-0.1,0.1-0.3,0-0.3-0.1c-0.1-0.1,0-0.3,0.1-0.3l7.8-5.3
			l-7.6,4.4c-0.1,0.1-0.3,0-0.3-0.1c-0.1-0.1,0-0.3,0.1-0.3l6.6-4.4l-6.4,3.7c-0.1,0.1-0.3,0-0.3-0.1c-0.1-0.1,0-0.3,0.1-0.3
			l6.8-4.5l-6.6,3.8c-0.1,0.1-0.3,0-0.3-0.1c-0.1-0.1,0-0.3,0.1-0.3l6.2-4.1l-6,3.5c-0.1,0.1-0.3,0-0.3-0.1c-0.1-0.1,0-0.3,0.1-0.3
			l8.1-5.5l-7.9,4.6c-0.1,0.1-0.3,0-0.3-0.1c-0.1-0.1,0-0.3,0.1-0.3l4.8-3.1l-4.5,2.6c-0.1,0.1-0.3,0-0.3-0.1s0-0.3,0.1-0.3l7.9-5.3
			l-7.6,4.4c-0.1,0.1-0.3,0-0.3-0.1c-0.1-0.1,0-0.3,0.1-0.3l6.5-4.3l-6.3,3.7c-0.1,0.1-0.3,0-0.3-0.1s0-0.3,0.1-0.3l6.1-4l-5.8,3.4
			c-0.1,0.1-0.3,0-0.3-0.1c-0.1-0.1,0-0.3,0.1-0.3l7.5-5l-7.2,4.2c-0.1,0.1-0.3,0-0.3-0.1c-0.1-0.1,0-0.3,0.1-0.3l7.6-5.1l-7.3,4.3
			c-0.1,0.1-0.3,0-0.3-0.1c-0.1-0.1,0-0.3,0.1-0.3l5.8-3.7l-5.5,3.2c-0.1,0.1-0.3,0-0.3-0.1c-0.1-0.1,0-0.3,0.1-0.3l7.1-4.7l-6.9,4
			c-0.1,0.1-0.3,0-0.3-0.1c-0.1-0.1,0-0.3,0.1-0.3l8.4-5.8l-8.2,4.8c-0.1,0.1-0.3,0-0.3-0.1s0-0.3,0.1-0.3l7.9-5.3l-7.7,4.5
			c-0.1,0.1-0.3,0-0.3-0.1c-0.1-0.1,0-0.3,0.1-0.3l8.2-5.5l-7.9,4.6c-0.1,0.1-0.3,0-0.3-0.1s0-0.3,0.1-0.3l4.4-2.8l-4.2,2.4
			c-0.1,0.1-0.3,0-0.3-0.1c-0.1-0.1,0-0.3,0.1-0.3l8.6-5.9l-8.4,4.9c-0.1,0.1-0.3,0-0.3-0.1c-0.1-0.1,0-0.3,0.1-0.3l8.6-5.9
			l-8.4,4.9c-0.1,0.1-0.3,0-0.3-0.1c-0.1-0.1,0-0.3,0.1-0.3l5.6-3.6l-5.3,3.1c-0.1,0.1-0.3,0-0.3-0.1c-0.1-0.1,0-0.3,0.1-0.3
			l7.8-5.3l-7.6,4.4c-0.1,0.1-0.3,0-0.3-0.1c-0.1-0.1,0-0.3,0.1-0.3l6.1-4l-5.8,3.4c-0.1,0.1-0.3,0-0.3-0.1c-0.1-0.1,0-0.3,0.1-0.3
			l8.2-5.6l-8,4.7c-0.1,0.1-0.3,0-0.3-0.1c-0.1-0.1,0-0.3,0.1-0.3l7.7-5.2L12.9,19c-0.1,0.1-0.3,0-0.3-0.1c-0.1-0.1,0-0.3,0.1-0.3
			l8.3-5.7l-8.1,4.7c-0.1,0.1-0.3,0-0.3-0.1c-0.1-0.1,0-0.3,0.1-0.3l4.8-3.1l-4.6,2.7c-0.1,0.1-0.3,0-0.3-0.1
			c-0.1-0.1,0-0.3,0.1-0.3l6-3.9l-5.8,3.4c-0.1,0.1-0.3,0-0.3-0.1c-0.1-0.1,0-0.3,0.1-0.3l4-2.6l-3.8,2.2c-0.1,0.1-0.3,0-0.3-0.1
			c-0.1-0.1,0-0.3,0.1-0.3l8.4-5.7l-8.1,4.7c-0.1,0.1-0.3,0-0.3-0.1c-0.1-0.1,0-0.3,0.1-0.3l6.8-4.5L2.6,18.5
			c-0.1,0.1-0.3,0-0.3-0.1c-0.1-0.1,0-0.3,0.1-0.3l9.6-5.9l-9.5,5.5c-0.1,0.1-0.3,0-0.3-0.1c-0.1-0.1,0-0.3,0.1-0.3l10.3-6.4
			l-10.3,6c-0.1,0.1-0.3,0-0.3-0.1c-0.1-0.1,0-0.3,0.1-0.3l13.7-8.7L2,15.7c-0.1,0.1-0.3,0-0.3-0.1c-0.1-0.1,0-0.3,0.1-0.3l13.1-8.3
			L1.8,14.5c-0.1,0.1-0.3,0-0.3-0.1c-0.1-0.1,0-0.3,0.1-0.3l10.6-6.7L1.6,13.6c-0.1,0.1-0.3,0-0.3-0.1c-0.1-0.1,0-0.3,0.1-0.3
			l8.4-5.3l-8.3,4.8c-0.1,0.1-0.3,0-0.3-0.1c-0.1-0.1,0-0.3,0.1-0.3l7.1-4.4l-7,4.1C1.2,12.1,1,12,1,11.9c-0.1-0.1,0-0.3,0.1-0.3
			l10.3-6.8L1,10.8c-0.1,0.1-0.3,0-0.3-0.1c-0.1-0.1,0-0.3,0.1-0.3l7.4-4.8L0.8,9.8c-0.1,0.1-0.3,0-0.3-0.1c-0.1-0.1,0-0.3,0.1-0.3
			l7.9-5.3L0.6,8.7c-0.1,0.1-0.2,0-0.3,0c-0.1-0.1-0.1-0.2,0-0.3l0.8-1.2L0.4,7.5C0.2,7.6,0.1,7.6,0,7.4s0-0.3,0.1-0.3l1.6-0.9
			c0.1-0.1,0.2,0,0.3,0c0.1,0.1,0.1,0.2,0,0.3L1.2,7.8L14.5,0c0.1-0.1,0.3,0,0.3,0.1c0.1,0.1,0,0.3-0.1,0.3L6.8,5.8L16.7,0
			C16.8,0,17,0,17,0.1c0.1,0.1,0,0.3-0.1,0.3L9.6,5.2L18.5,0c0.1-0.1,0.3,0,0.3,0.1c0.1,0.1,0,0.3-0.1,0.3L8.4,7.3L20.8,0
			c0.1-0.1,0.3,0,0.3,0.1c0.1,0.1,0,0.3-0.1,0.3L14,4.9L22.3,0c0.1-0.1,0.3,0,0.3,0.1c0.1,0.1,0,0.3-0.1,0.3l-8.4,5.3L23.9,0
			C24,0,24.2,0,24.3,0.1c0.1,0.1,0,0.3-0.1,0.3L13.5,7.1L25.8,0C25.9,0,26,0,26.1,0.1c0.1,0.1,0,0.3-0.1,0.3L12.9,8.8l13.7-8
			c0.1-0.1,0.3,0,0.3,0.1C27,1,27,1.1,26.9,1.2L13.2,9.9L26.6,2C26.7,2,26.9,2,27,2.1c0.1,0.1,0,0.3-0.1,0.3L16.5,8.9L26.6,3
			c0.1-0.1,0.3,0,0.3,0.1c0.1,0.1,0,0.3-0.1,0.3l-9.6,5.9l9.3-5.4c0.1-0.1,0.3,0,0.3,0.1c0.1,0.1,0,0.3-0.1,0.3l-6.8,4.5L26.6,5
			c0.1-0.1,0.3,0,0.3,0.1c0.1,0.1,0,0.3-0.1,0.3l-8.4,5.7l8.1-4.7c0.1-0.1,0.3,0,0.3,0.1c0.1,0.1,0,0.3-0.1,0.3l-4,2.6l3.8-2.2
			c0.1-0.1,0.3,0,0.3,0.1c0.1,0.1,0,0.3-0.1,0.3l-6,3.9l5.8-3.4c0.1-0.1,0.3,0,0.3,0.1c0.1,0.1,0,0.3-0.1,0.3L22,11.7L26.6,9
			c0.1-0.1,0.3,0,0.3,0.1c0.1,0.1,0,0.3-0.1,0.3l-8.3,5.7l8.1-4.7c0.1-0.1,0.3,0,0.3,0.1c0.1,0.1,0,0.3-0.1,0.3L19.2,16l7.5-4.4
			c0.1-0.1,0.3,0,0.3,0.1c0.1,0.1,0,0.3-0.1,0.3l-8.2,5.6l8-4.7c0.1-0.1,0.3,0,0.3,0.1c0.1,0.1,0,0.3-0.1,0.3l-6.1,4l5.8-3.4
			c0.1-0.1,0.3,0,0.3,0.1c0.1,0.1,0,0.3-0.1,0.3l-7.8,5.3l7.6-4.4c0.1-0.1,0.3,0,0.3,0.1c0.1,0.1,0,0.3-0.1,0.3l-5.6,3.6l5.3-3.1
			c0.1-0.1,0.3,0,0.3,0.1c0.1,0.1,0,0.3-0.1,0.3l-8.6,5.9l8.4-4.9c0.1-0.1,0.3,0,0.3,0.1c0.1,0.1,0,0.3-0.1,0.3L18.3,24l8.4-4.9
			c0.1-0.1,0.3,0,0.3,0.1c0.1,0.1,0,0.3-0.1,0.3l-4.4,2.8l4.2-2.4c0.1-0.1,0.3,0,0.3,0.1c0.1,0.1,0,0.3-0.1,0.3l-8.2,5.6l7.9-4.6
			c0.1-0.1,0.3,0,0.3,0.1c0.1,0.1,0,0.3-0.1,0.3L19,27l7.7-4.5c0.1-0.1,0.3,0,0.3,0.1c0.1,0.1,0,0.3-0.1,0.3l-8.4,5.8l8.2-4.8
			c0.1-0.1,0.3,0,0.3,0.1c0.1,0.1,0,0.3-0.1,0.3l-7.1,4.7l6.9-4c0.1-0.1,0.3,0,0.3,0.1c0.1,0.1,0,0.3-0.1,0.3l-5.8,3.7l5.5-3.2
			c0.1-0.1,0.3,0,0.3,0.1c0.1,0.1,0,0.3-0.1,0.3l-7.6,5.1l7.3-4.3c0.1-0.1,0.3,0,0.3,0.1c0.1,0.1,0,0.3-0.1,0.3l-7.5,5l7.2-4.2
			c0.1-0.1,0.3,0,0.3,0.1c0.1,0.1,0,0.3-0.1,0.3l-6.1,4l5.8-3.4c0.1-0.1,0.3,0,0.3,0.1c0.1,0.1,0,0.3-0.1,0.3l-6.5,4.3l6.3-3.7
			c0.1-0.1,0.3,0,0.3,0.1c0.1,0.1,0,0.3-0.1,0.3L19,36.3l7.6-4.4c0.1-0.1,0.3,0,0.3,0.1c0.1,0.1,0,0.3-0.1,0.3l-4.8,3.1l4.5-2.6
			c0.1-0.1,0.3,0,0.3,0.1c0.1,0.1,0,0.3-0.1,0.3l-8.1,5.5l7.9-4.6c0.1-0.1,0.3,0,0.3,0.1c0.1,0.1,0,0.3-0.1,0.3l-6.2,4.1l6-3.5
			c0.1-0.1,0.3,0,0.3,0.1c0.1,0.1,0,0.3-0.1,0.3L20.1,40l6.6-3.8c0.1-0.1,0.3,0,0.3,0.1c0.1,0.1,0,0.3-0.1,0.3l-6.6,4.4l6.4-3.7
			c0.1-0.1,0.3,0,0.3,0.1c0.1,0.1,0,0.3-0.1,0.3L19,42.9l7.6-4.4c0.1-0.1,0.3,0,0.3,0.1c0.1,0.1,0,0.3-0.1,0.3l-4.5,2.9l4.2-2.5
			c0.1-0.1,0.3,0,0.3,0.1c0.1,0.1,0,0.3-0.1,0.3l-6.3,4.1l6.1-3.5c0.1-0.1,0.3,0,0.3,0.1c0.1,0.1,0,0.3-0.1,0.3l-6.2,4.1l6-3.5
			c0.1-0.1,0.3,0,0.3,0.1c0.1,0.1,0,0.3-0.1,0.3l-7.4,4.9l7.1-4.1c0.1-0.1,0.3,0,0.3,0.1c0.1,0.1,0,0.3-0.1,0.3l-6,3.9l5.8-3.4
			c0.1-0.1,0.3,0,0.3,0.1c0.1,0.1,0,0.3-0.1,0.3l-5.8,3.8l5.5-3.2c0.1-0.1,0.3,0,0.3,0.1c0.1,0.1,0,0.3-0.1,0.3l-6.7,4.4l6.4-3.7
			c0.1-0.1,0.3,0,0.3,0.1c0.1,0.1,0,0.3-0.1,0.3l-7.9,5.4l7.7-4.5c0.1-0.1,0.3,0,0.3,0.1c0.1,0.1,0,0.3-0.1,0.3L18.4,53l8.2-4.8
			c0.1-0.1,0.3,0,0.3,0.1c0.1,0.1,0,0.3-0.1,0.3l-6.8,4.5l6.6-3.8c0.1-0.1,0.3,0,0.3,0.1c0.1,0.1,0,0.3-0.1,0.3l-6.4,4.2l6.2-3.6
			c0.1-0.1,0.3,0,0.3,0.1c0.1,0.1,0,0.3-0.1,0.3L19.2,56l7.5-4.3c0.1-0.1,0.3,0,0.3,0.1c0.1,0.1,0,0.3-0.1,0.3l-6.5,4.6l6.2-3.6
			c0.1-0.1,0.3,0,0.3,0.1c0.1,0.1,0,0.3-0.1,0.3l-4.8,3.4l4.6-2.7c0.1-0.1,0.2,0,0.3,0.1c0.1,0.1,0,0.2-0.1,0.3l-4.1,3.2l3.8-2.2
			c0.1-0.1,0.2,0,0.3,0.1c0.1,0.1,0,0.3-0.1,0.3l-2.1,1.6l1.8-1.1c0.1-0.1,0.2,0,0.3,0.1c0.1,0.1,0,0.2-0.1,0.3l-1.2,1l1-0.6
			c0.1-0.1,0.2,0,0.3,0.1c0.1,0.1,0.1,0.2,0,0.3l-1,1l0.7-0.4c0.1-0.1,0.2,0,0.3,0c0.1,0.1,0.1,0.2,0,0.3l-0.3,0.5
			c0.1,0,0.2,0,0.3,0.1c0.1,0.1,0,0.3-0.1,0.3l-0.6,0.4c-0.1,0.1-0.2,0-0.3,0c-0.1-0.1-0.1-0.2,0-0.3l0.3-0.5l-1.5,0.9
			c-0.1,0.1-0.2,0-0.3-0.1c-0.1-0.1-0.1-0.2,0-0.3l1-1L23,59.9c-0.1,0.1-0.2,0-0.3-0.1c-0.1-0.1,0-0.2,0.1-0.3l1.2-1l-2.4,1.4
			c-0.1,0.1-0.2,0-0.3-0.1c-0.1-0.1,0-0.3,0.1-0.3l2.1-1.6l-3.4,2c-0.1,0.1-0.2,0-0.3-0.1s0-0.2,0.1-0.3l4.1-3.2L17.6,60
			c-0.1,0.1-0.3,0-0.3-0.1c-0.1-0.1,0-0.3,0.1-0.3l4.8-3.4L15.6,60c-0.1,0.1-0.3,0-0.3-0.1c-0.1-0.1,0-0.3,0.1-0.3l6.5-4.6l-8.5,5
			C13.3,60,13.3,60,13.2,60z"/>
	</g>
</g>
</svg>
