<?xml version="1.0" encoding="utf-8"?>
<!-- Generator: Adobe Illustrator 18.1.1, SVG Export Plug-In . SVG Version: 6.00 Build 0)  -->
<!DOCTYPE svg PUBLIC "-//W3C//DTD SVG 1.1//EN" "http://www.w3.org/Graphics/SVG/1.1/DTD/svg11.dtd">
<svg version="1.1" id="Layer_1" xmlns="http://www.w3.org/2000/svg" xmlns:xlink="http://www.w3.org/1999/xlink" x="0px" y="0px"
	 width="137.8px" height="47px" viewBox="-388.2 257 137.8 47" enable-background="new -388.2 257 137.8 47" xml:space="preserve">
<g>
	<rect x="-312.1" y="260.8" fill="#FFFFFF" width="0.3" height="39.4"/>
	<path fill="#FFFFFF" d="M-301.9,266.9c0.8-0.2,1.8-0.3,2.9-0.3c1.2,0,2.4,0.2,3.3,0.9c0.7,0.6,1,1.4,1,2.3c0,1.1-0.6,2.2-1.9,2.8
		v0.1c1.5,0.4,2.3,1.6,2.3,3.1c0,1-0.3,1.9-0.9,2.5c-0.8,0.9-2.1,1.3-4.3,1.3c-0.9,0-1.8-0.1-2.4-0.2L-301.9,266.9 M-299.3,271.9
		h0.5c0.9,0,1.6-0.8,1.6-1.8c0-0.9-0.4-1.6-1.4-1.6c-0.3,0-0.5,0-0.7,0.1V271.9z M-299.3,277.6c0.2,0,0.3,0,0.6,0
		c1,0,1.9-0.6,1.9-1.9c0-1.3-0.9-2-1.9-2h-0.5L-299.3,277.6L-299.3,277.6z"/>
	<path fill="#FFFFFF" d="M-286.3,279.2c-0.3,0.2-1.1,0.3-2,0.3c-3.3,0-4.9-2.6-4.9-6.3c0-4.9,2.7-6.7,5.3-6.7c0.9,0,1.5,0.2,1.8,0.3
		l-0.4,2c-0.3-0.2-0.6-0.3-1.2-0.3c-1.4,0-2.7,1.2-2.7,4.3c0,3.1,1.2,4.3,2.7,4.3c0.4,0,0.9-0.1,1.2-0.2L-286.3,279.2"/>
	<path fill="#FFFFFF" d="M-280.7,266.7h2.6v8.7c0,3.7-1.8,4.3-3.7,4.3c-0.5,0-1-0.1-1.3-0.2l0.3-2c0.3,0.1,0.5,0.1,0.9,0.1
		c0.8,0,1.4-0.3,1.4-2L-280.7,266.7"/>
	<path fill="#FFFFFF" d="M-268.3,272.8c0,4.9-1.7,6.7-4.3,6.7c-3,0-4.2-3.1-4.2-6.6c0-3.5,1.4-6.5,4.3-6.5
		C-269.2,266.5-268.3,269.9-268.3,272.8 M-274,273.1c0,2.9,0.6,4.3,1.6,4.3c1.1,0,1.5-1.9,1.5-4.5c0-2.2-0.3-4.3-1.5-4.3
		C-273.5,268.7-274,270.3-274,273.1z"/>
	<path fill="#FFFFFF" d="M-266.7,266.9c0.8-0.2,1.8-0.3,2.9-0.3c1.2,0,2.4,0.2,3.3,0.9c0.7,0.6,1,1.4,1,2.3c0,1.1-0.6,2.2-1.9,2.8
		v0.1c1.5,0.4,2.3,1.6,2.3,3.1c0,1-0.3,1.9-0.9,2.5c-0.8,0.9-2.1,1.3-4.3,1.3c-0.9,0-1.8-0.1-2.4-0.2L-266.7,266.9 M-264.1,271.9
		h0.5c0.9,0,1.6-0.8,1.6-1.8c0-0.9-0.4-1.6-1.4-1.6c-0.3,0-0.5,0-0.7,0.1V271.9z M-264.1,277.6c0.2,0,0.3,0,0.6,0
		c1,0,1.9-0.6,1.9-1.9c0-1.3-0.9-2-1.9-2h-0.5L-264.1,277.6L-264.1,277.6z"/>
	<path fill="#FFFFFF" d="M-257.7,276.9c0.5,0.3,1.4,0.5,2.1,0.5c1.2,0,1.8-0.6,1.8-1.4c0-0.9-0.6-1.4-1.7-2c-1.8-1-2.5-2.4-2.5-3.6
		c0-2,1.4-3.7,4.1-3.7c0.9,0,1.7,0.3,2,0.4l-0.4,2.1c-0.3-0.3-0.9-0.4-1.6-0.4c-1.1,0-1.6,0.7-1.6,1.4c0,0.8,0.4,1.2,1.8,2
		c1.8,1,2.4,2.3,2.4,3.7c0,2.3-1.8,3.8-4.3,3.8c-1,0-2-0.3-2.5-0.5L-257.7,276.9"/>
	<path fill="#FFFFFF" d="M-301.9,282.5c0.7-0.2,1.7-0.3,2.6-0.3c1.5,0,2.7,0.2,3.6,1c0.8,0.7,1.1,1.7,1.1,2.8c0,1.4-0.4,2.4-1.1,3.1
		c-0.9,0.9-2.1,1.2-3.2,1.2c-0.2,0-0.3,0-0.5,0v4.8h-2.6V282.5 M-299.3,288.3c0.2,0,0.3,0,0.4,0c1.3,0,1.9-0.9,1.9-2
		c0-1.1-0.4-2-1.6-2c-0.3,0-0.4,0-0.6,0.1L-299.3,288.3L-299.3,288.3z"/>
	<polyline fill="#FFFFFF" points="-293,282.4 -290.5,282.4 -290.5,293 -287.1,293 -287.1,295.2 -293,295.2 -293,282.4 	"/>
	<path fill="#FFFFFF" d="M-283.4,292.2l-0.6,2.9h-2.5l2.8-12.8h3.1l2.6,12.8h-2.5l-0.6-2.9H-283.4 M-281.3,290.3l-0.4-2.6
		c-0.2-0.8-0.3-2-0.4-2.9h-0.1c-0.2,0.9-0.3,2.1-0.4,2.9l-0.5,2.6H-281.3z"/>
	<path fill="#FFFFFF" d="M-276.7,295.2v-12.8h2.3l2,5c0.4,1,1,2.6,1.4,3.7l0,0c-0.1-1.4-0.3-3.6-0.3-5.9v-2.8h2.2v12.8h-2.3l-2-4.9
		c-0.4-1.1-1-2.7-1.4-3.8l0,0c0.1,1.3,0.2,3.2,0.2,5.9v2.9h-2.2"/>
	<polyline fill="#6EC068" points="-387.5,286.1 -377.9,287.5 -377.9,273.6 -387.5,275 -387.5,286.1 	"/>
	<polyline fill="#6EC068" points="-387.5,273.2 -377.9,271.5 -377.9,257.6 -387.5,261.9 -387.5,273.2 	"/>
	<polyline fill="#6EC068" points="-387.5,299.2 -377.9,303.5 -377.9,289.6 -387.5,287.9 -387.5,299.2 	"/>
	<polyline fill="#6EC068" points="-365.4,274 -376,273.5 -376,287.4 -365.4,287 -365.4,274 	"/>
	<polyline fill="#6EC068" points="-329.3,264.4 -329.3,274.2 -322,274.6 -322,265.4 -329.3,264.4 	"/>
	<path fill="#004B8D" d="M-331.2,264.1l-44.9-6.6v13.9l44.9,2.8V264.1 M-363.6,274.1v12.8l41.7-1.7v-9L-363.6,274.1z M-376.1,303.4
		l35.4-4.9v-10.7l-35.4,1.9L-376.1,303.4z"/>
	<path fill="#FFFFFF" d="M-371.6,265.7v-1.6c0-2.4,1.2-3.6,2.7-3.4c1.4,0.2,2.5,1.2,2.5,3.3l-1.6-0.2c-0.1-0.9-0.3-1.4-0.9-1.4
		c-0.7-0.1-1.1,0.5-1.1,1.9v1.7c0,1.4,0.4,2,1.1,2c0.5,0.1,0.9-0.3,1-1.3l1.5,0.2c-0.1,2-1,3-2.6,2.8
		C-370.6,269.6-371.6,268.1-371.6,265.7"/>
	<path fill="#FFFFFF" d="M-362.1,268.3l-1.7-0.2l-0.3,1.7l-1.4-0.1l1.6-8.3l2.1,0.3l1.6,8.4l-1.6-0.1L-362.1,268.3 M-363.5,266.8
		l1.2,0.1l-0.6-3.5L-363.5,266.8z"/>
	<polyline fill="#FFFFFF" points="-358.9,262.2 -357.2,262.4 -355.4,267.1 -355.4,262.6 -354,262.8 -354,270.7 -355.5,270.5 
		-357.5,265.3 -357.5,270.4 -358.9,270.3 -358.9,262.2 	"/>
	<path fill="#FFFFFF" d="M-349.2,269.5l-1.7-0.2l-0.3,1.5l-1.4-0.1l1.6-7.6l2.1,0.3l1.6,7.7l-1.6-0.1L-349.2,269.5 M-350.7,268.1
		l1.2,0.1l-0.6-3.2L-350.7,268.1z"/>
	<path fill="#FFFFFF" d="M-344,264.1c1.9,0.3,2.9,1.4,2.9,3.4v1c0,2-1,3-2.9,2.8l-2-0.2v-7.3L-344,264.1 M-344.5,265.5v4.5h0.4
		c0.9,0.1,1.3-0.4,1.3-1.6v-1c0-1.2-0.3-1.7-1.3-1.9H-344.5z"/>
	<path fill="#FFFFFF" d="M-336.8,270.5l-1.7-0.2l-0.3,1.4l-1.4-0.1l1.6-6.9l2.1,0.3l1.6,7l-1.7-0.2L-336.8,270.5 M-338.2,269.3
		l1.2,0.1l-0.6-2.9L-338.2,269.3z"/>
	<path fill="#FFFFFF" d="M-358.8,282h1.5c0,0.8,0.3,1.1,0.9,1.1c0.4,0,0.8-0.3,0.8-0.9c0-0.6-0.3-0.9-1.1-1c-1.3-0.4-2-1.1-2-2.6
		c0-1.4,0.9-2.4,2.2-2.4c1.4,0.1,2.1,0.9,2.2,2.5h-1.4c-0.1-0.7-0.3-0.9-0.8-0.9c-0.4,0-0.7,0.3-0.7,0.7c0,0.5,0.2,0.8,1,1
		c1.2,0.3,2,0.9,2,2.6c0,1.5-0.9,2.5-2.3,2.6C-357.9,284.7-358.7,283.8-358.8,282"/>
	<polyline fill="#FFFFFF" points="-351.6,278.1 -353.1,278.1 -353.1,276.6 -348.6,276.7 -348.6,278.2 -350.1,278.1 -350.1,284.3 
		-351.6,284.4 -351.6,278.1 	"/>
	<path fill="#FFFFFF" d="M-344.7,282.7h-1.7l-0.3,1.5h-1.4l1.6-7.5l2.1,0.1l1.6,7.3h-1.6L-344.7,282.7 M-346.2,281.4h1.2l-0.6-3.1
		L-346.2,281.4z"/>
	<path fill="#FFFFFF" d="M-341.5,276.9l2.1,0.1c1.5,0.1,2.3,0.8,2.3,2v0.3c0,0.9-0.4,1.4-0.9,1.6l1.3,3h-1.6l-1.1-2.6h-0.4v2.7h-1.6
		V276.9 M-339.4,280.2c0.5,0,0.9-0.3,0.9-0.8v-0.3c0-0.5-0.3-0.8-0.8-0.8h-0.5v1.9L-339.4,280.2z"/>
	<polyline fill="#FFFFFF" points="-334.6,278.5 -335.9,278.5 -335.9,277.1 -331.5,277.3 -331.5,278.5 -333,278.5 -333,283.9 
		-334.6,284 -334.6,278.5 	"/>
	<path fill="#FFFFFF" d="M-330.8,281.9h1.4c0,0.6,0.2,0.9,0.8,0.9c0.4,0,0.6-0.3,0.6-0.7c0-0.5-0.3-0.7-0.9-0.9
		c-1.1-0.3-1.7-0.9-1.7-2c0-1.2,0.8-1.9,2-1.9c1.2,0.1,1.9,0.7,2,2h-1.3c-0.1-0.6-0.3-0.8-0.7-0.8c-0.3,0-0.6,0.2-0.6,0.5
		c0,0.4,0.2,0.6,0.9,0.8c1,0.3,1.8,0.7,1.8,2c0,1.2-0.8,2-2,2C-330.1,283.9-330.7,283.2-330.8,281.9"/>
	<polyline fill="#FFFFFF" points="-368.7,291.2 -367.1,291.1 -367.1,294.5 -365.3,294.4 -365.3,291 -363.8,290.9 -363.8,299.3 
		-365.3,299.6 -365.3,296.1 -367.1,296.3 -367.1,299.8 -368.7,299.9 -368.7,291.2 	"/>
	<polyline fill="#FFFFFF" points="-362.1,290.8 -358.3,290.5 -358.3,292.1 -360.5,292.3 -360.5,294 -358.8,293.8 -358.8,295.2 
		-360.5,295.4 -360.5,297.4 -358.3,297.1 -358.3,298.6 -362.1,299.2 -362.1,290.8 	"/>
	<path fill="#FFFFFF" d="M-356.8,290.4l2.1-0.2c1.5-0.1,2.3,0.6,2.3,2.1v0.3c0,1-0.4,1.6-0.9,2l1.3,3.2l-1.6,0.2l-1.1-2.9l-0.4,0.1
		v3.1l-1.6,0.2V290.4 M-354.7,293.9c0.5-0.1,0.9-0.3,0.9-0.9v-0.3c0-0.6-0.3-0.9-0.9-0.8h-0.5v2.1L-354.7,293.9z"/>
	<polyline fill="#FFFFFF" points="-350.8,290 -347,289.7 -347,291.1 -349.2,291.3 -349.2,292.9 -347.5,292.8 -347.5,294.1 
		-349.2,294.3 -349.2,296 -346.9,295.7 -346.9,297.2 -350.8,297.7 -350.8,290 	"/>
	<polyline fill="#6EC068" points="-338.9,287.6 -338.9,298.2 -322,295.8 -322,286.6 -338.9,287.6 	"/>
</g>
</svg>
