<?xml version="1.0" encoding="utf-8"?>
<!-- Generator: Adobe Illustrator 18.1.1, SVG Export Plug-In . SVG Version: 6.00 Build 0)  -->
<!DOCTYPE svg PUBLIC "-//W3C//DTD SVG 1.1//EN" "http://www.w3.org/Graphics/SVG/1.1/DTD/svg11.dtd">
<svg version="1.1" id="Layer_2" xmlns="http://www.w3.org/2000/svg" xmlns:xlink="http://www.w3.org/1999/xlink" x="0px" y="0px"
	 width="30px" height="30px" viewBox="-234 236 30 30" enable-background="new -234 236 30 30" xml:space="preserve">
<circle fill="#FFFFFF" cx="-219" cy="251" r="15"/>
<circle cx="-219" cy="251" r="12.8"/>
<g>
	<path fill="#FFFFFF" d="M-217.4,250.9l3.2-3.1c0.4-0.4,0.4-1.1,0-1.6c-0.4-0.4-1.1-0.4-1.6,0l-3.2,3.1l-3.1-3.1
		c-0.4-0.4-1.1-0.4-1.6,0c-0.4,0.4-0.4,1.1,0,1.6l3,3.2l-3.1,3.1c-0.4,0.4-0.4,1.1,0,1.6c0.2,0.2,0.5,0.3,0.8,0.3s0.6-0.1,0.8-0.3
		l3.2-3.1l3.1,3.2c0.2,0.2,0.5,0.3,0.8,0.3c0.3,0,0.6-0.1,0.8-0.3c0.4-0.4,0.4-1.1,0-1.6L-217.4,250.9z"/>
</g>
</svg>
