<?xml version="1.0" encoding="utf-8"?>
<!-- Generator: Adobe Illustrator 18.1.1, SVG Export Plug-In . SVG Version: 6.00 Build 0)  -->
<!DOCTYPE svg PUBLIC "-//W3C//DTD SVG 1.1//EN" "http://www.w3.org/Graphics/SVG/1.1/DTD/svg11.dtd">
<svg version="1.1" id="Layer_1" xmlns="http://www.w3.org/2000/svg" xmlns:xlink="http://www.w3.org/1999/xlink" x="0px" y="0px"
	 width="24px" height="24px" viewBox="0 0 24 24" enable-background="new 0 0 24 24" xml:space="preserve">
<path fill="#565656" d="M11.8,0C18.4-0.1,23.9,5.2,24,11.8c0.1,6.7-5.2,12.2-11.8,12.2C5.5,24.1,0.1,18.8,0,12.3
	C-0.1,5.6,5.2,0.1,11.8,0z M6.7,12c0,2.9,2.3,5.3,5.2,5.3c3,0,5.3-2.3,5.4-5.2c0-3-2.3-5.3-5.2-5.4C9.1,6.7,6.7,9.1,6.7,12z M11.5,1
	c-4,0.3-7.1,2.2-9.1,5.6C0.6,9.7,0.5,13,1.8,16.3c1.5-0.7,2.9-1.4,4.3-2.1c-0.7-2-0.5-3.8,0.6-5.6C7.8,6.9,9.5,6,11.5,5.8
	C11.5,4.2,11.5,2.6,11.5,1z M18.1,21.2c4.9-3.2,6-9.4,4.1-13.5c-1.4,0.7-2.9,1.4-4.3,2c0.9,3,0.2,5.4-2.2,7.4
	C16.4,18.5,17.2,19.8,18.1,21.2z M21.7,6.9C20,3.3,15.9,1,12.5,1c0,1.6,0,3.1,0,4.7C14.6,6,16.3,7,17.4,8.9
	C18.9,8.2,20.3,7.5,21.7,6.9z M2.3,17.1c1.1,3,6.2,6.2,9.2,5.8c0-1.6,0-3.2,0-4.7c-2.2-0.2-3.8-1.3-4.9-3.1
	C5.1,15.8,3.7,16.5,2.3,17.1z M14.8,17.7c-0.8,0.2-1.6,0.4-2.3,0.6c0,1.5,0,3.1,0,4.7c1.7-0.1,3.3-0.5,4.8-1.3
	C16.4,20.3,15.6,19,14.8,17.7z"/>
</svg>
