<?xml version="1.0" encoding="utf-8"?>
<!-- Generator: Adobe Illustrator 18.1.1, SVG Export Plug-In . SVG Version: 6.00 Build 0)  -->
<svg version="1.1" id="Layer_1" xmlns="http://www.w3.org/2000/svg" xmlns:xlink="http://www.w3.org/1999/xlink" x="0px" y="0px"
	 width="26px" height="19px" viewBox="-6 11 26 19" enable-background="new -6 11 26 19" xml:space="preserve">
<path fill="#FFFFFF" d="M19.5,29.3c-0.4,0-2.2,0-2.5,0s-2.3,0-2.3,0v-4.5c0-3,0-5.9,0-8.9c0-0.5-0.1-0.6-0.5-0.6c-0.8,0-1.5,0-2.3,0
	s-1.6,0-2.4,0c-0.5,0-0.6,0.1-0.6,0.6c0,1.3,0,2.6,0,3.9v2.7H4.5v-3.9c0-2.3,0-4.6,0-6.9c0-0.4-0.1-0.5-0.1-0.5s-0.1-0.1-0.5-0.1
	c-0.7,0-1.4,0-2,0L-0.7,11c-0.4,0-0.5,0.1-0.5,0.1s-0.1,0.1-0.1,0.6c0,2.9,0,5.7,0,8.6v9c0,0-0.6,0-0.7,0c-0.4,0-0.7,0-1.1,0
	c-0.8,0-1.5,0-2.3,0c-0.2,0-0.3,0-0.4,0.1C-6,29.4-6,29.6-6,29.7c0,0.1,0,0.3,0.5,0.3c8.3,0,16.7,0,25,0c0.3,0,0.5-0.1,0.5-0.3
	c0-0.1,0-0.2-0.1-0.3C19.8,29.3,19.7,29.3,19.5,29.3z M3.7,29.3h-4.3V11.7h4.3C3.7,11.7,3.7,29.3,3.7,29.3z M8.8,29.3H4.5v-6.1h4.3
	V29.3z M14,29.3H9.7V16H14V29.3z"/>
</svg>
