<?xml version="1.0" encoding="utf-8"?>
<!-- Generator: Adobe Illustrator 18.1.1, SVG Export Plug-In . SVG Version: 6.00 Build 0)  -->
<svg version="1.1" id="Layer_1" xmlns="http://www.w3.org/2000/svg" xmlns:xlink="http://www.w3.org/1999/xlink" x="0px" y="0px"
	 width="24px" height="24px" viewBox="-7 9 24 24" enable-background="new -7 9 24 24" xml:space="preserve">
<path fill="#FFFFFF" d="M4.8,9c6.6-0.1,12.1,5.2,12.2,11.8C17.1,27.5,11.8,33,5.2,33C-1.5,33.1-6.9,27.8-7,21.3
	C-7.1,14.6-1.8,9.1,4.8,9z M-0.3,21c0,2.9,2.3,5.3,5.2,5.3c3,0,5.3-2.3,5.4-5.2c0-3-2.3-5.3-5.2-5.4C2.1,15.7-0.3,18.1-0.3,21z
	 M4.5,10c-4,0.3-7.1,2.2-9.1,5.6c-1.8,3.1-1.9,6.4-0.6,9.7c1.5-0.7,2.9-1.4,4.3-2.1c-0.7-2-0.5-3.8,0.6-5.6c1.1-1.7,2.8-2.6,4.8-2.8
	C4.5,13.2,4.5,11.6,4.5,10z M11.1,30.2c4.9-3.2,6-9.4,4.1-13.5c-1.4,0.7-2.9,1.4-4.3,2c0.9,3,0.2,5.4-2.2,7.4
	C9.4,27.5,10.2,28.8,11.1,30.2z M14.7,15.9C13,12.3,8.9,10,5.5,10c0,1.6,0,3.1,0,4.7c2.1,0.3,3.8,1.3,4.9,3.2
	C11.9,17.2,13.3,16.5,14.7,15.9z M-4.7,26.1c1.1,3,6.2,6.2,9.2,5.8c0-1.6,0-3.2,0-4.7c-2.2-0.2-3.8-1.3-4.9-3.1
	C-1.9,24.8-3.3,25.5-4.7,26.1z M7.8,26.7c-0.8,0.2-1.6,0.4-2.3,0.6c0,1.5,0,3.1,0,4.7c1.7-0.1,3.3-0.5,4.8-1.3
	C9.4,29.3,8.6,28,7.8,26.7z"/>
</svg>
