<?xml version="1.0" encoding="utf-8"?>
<!-- Generator: Adobe Illustrator 16.0.0, SVG Export Plug-In . SVG Version: 6.00 Build 0)  -->
<!DOCTYPE svg PUBLIC "-//W3C//DTD SVG 1.1//EN" "http://www.w3.org/Graphics/SVG/1.1/DTD/svg11.dtd">
<svg version="1.1" id="Layer_2" xmlns="http://www.w3.org/2000/svg" xmlns:xlink="http://www.w3.org/1999/xlink" x="0px" y="0px"
	 width="14px" height="14px" viewBox="0 0 14 14" enable-background="new 0 0 14 14" xml:space="preserve">
<g>
	<circle fill="#FFFFFF" cx="7" cy="7" r="7"/>
	<g>
		<path d="M7.9,6.9l1.8-1.7C9.9,5,9.9,4.6,9.7,4.3C9.5,4.1,9.1,4.1,8.8,4.3L7,6L5.3,4.3c-0.2-0.2-0.6-0.2-0.9,0
			C4.2,4.5,4.2,4.9,4.4,5.2L6.1,7L4.4,8.7C4.2,8.9,4.2,9.3,4.4,9.6C4.5,9.7,4.7,9.8,4.8,9.8c0.2,0,0.3-0.1,0.4-0.2L7,7.9l1.7,1.8
			C8.8,9.8,9,9.9,9.1,9.9C9.3,9.9,9.4,9.8,9.5,9.7c0.2-0.2,0.2-0.601,0-0.9L7.9,6.9z"/>
	</g>
</g>
</svg>
