<?xml version="1.0" encoding="utf-8"?>
<!-- Generator: Adobe Illustrator 18.1.1, SVG Export Plug-In . SVG Version: 6.00 Build 0)  -->
<!DOCTYPE svg PUBLIC "-//W3C//DTD SVG 1.1//EN" "http://www.w3.org/Graphics/SVG/1.1/DTD/svg11.dtd">
<svg version="1.1" id="Layer_1" xmlns="http://www.w3.org/2000/svg" xmlns:xlink="http://www.w3.org/1999/xlink" x="0px" y="0px"
	 width="26px" height="19px" viewBox="0 0 26 19" enable-background="new 0 0 26 19" xml:space="preserve">
<path fill="#565656" d="M25.5,18.3c-0.4,0-2.2,0-2.5,0c-0.3,0-2.3,0-2.3,0l0-4.5c0-3,0-5.9,0-8.9c0-0.5-0.1-0.6-0.5-0.6
	c-0.8,0-1.5,0-2.3,0c-0.8,0-1.6,0-2.4,0c-0.5,0-0.6,0.1-0.6,0.6c0,1.3,0,2.6,0,3.9l0,2.7h-4.4l0-3.9c0-2.3,0-4.6,0-6.9
	c0-0.4-0.1-0.5-0.1-0.5c0,0-0.1-0.1-0.5-0.1c-0.7,0-1.4,0-2,0L5.3,0C4.9,0,4.8,0.1,4.8,0.1c0,0-0.1,0.1-0.1,0.6c0,2.9,0,5.7,0,8.6
	l0,9c0,0-0.6,0-0.7,0c-0.4,0-0.7,0-1.1,0c-0.8,0-1.5,0-2.3,0c-0.2,0-0.3,0-0.4,0.1C0,18.4,0,18.6,0,18.7C0,18.8,0,19,0.5,19
	c8.3,0,16.7,0,25,0c0.3,0,0.5-0.1,0.5-0.3c0-0.1,0-0.2-0.1-0.3C25.8,18.3,25.7,18.3,25.5,18.3z M9.7,18.3H5.4V0.7h4.3V18.3z
	 M14.8,18.3h-4.3v-6.1h4.3V18.3z M20,18.3h-4.3V5H20V18.3z"/>
</svg>
