<?xml version="1.0" encoding="utf-8"?>
<!-- Generator: Adobe Illustrator 18.1.1, SVG Export Plug-In . SVG Version: 6.00 Build 0)  -->
<svg version="1.1" xmlns="http://www.w3.org/2000/svg" xmlns:xlink="http://www.w3.org/1999/xlink" x="0px" y="0px" width="220.5px"
	 height="58.5px" viewBox="90 -9.1 220.5 58.5" enable-background="new 90 -9.1 220.5 58.5" xml:space="preserve">
<g id="Layer_1">
</g>
<g id="Layer_2">
	<g>
		<g>
			<circle fill="none" cx="133.8" cy="34.4" r="0.1"/>
			<radialGradient id="SVGID_1_" cx="133.339" cy="32.1026" r="42.3524" gradientUnits="userSpaceOnUse">
				<stop  offset="0" style="stop-color:#FFFFFF"/>
				<stop  offset="0.1263" style="stop-color:#FFFEFC"/>
				<stop  offset="0.2371" style="stop-color:#FFFAF1"/>
				<stop  offset="0.342" style="stop-color:#FFF4DF"/>
				<stop  offset="0.4434" style="stop-color:#FFEBC6"/>
				<stop  offset="0.5413" style="stop-color:#FFE0A5"/>
				<stop  offset="0.6" style="stop-color:#FFD88E"/>
				<stop  offset="0.616" style="stop-color:#FFD581"/>
				<stop  offset="0.6629" style="stop-color:#FECC5F"/>
				<stop  offset="0.7132" style="stop-color:#FDC543"/>
				<stop  offset="0.7673" style="stop-color:#FDBF2E"/>
				<stop  offset="0.827" style="stop-color:#FCBB1F"/>
				<stop  offset="0.8967" style="stop-color:#FCB916"/>
				<stop  offset="1" style="stop-color:#FCB813"/>
			</radialGradient>
			<path fill="url(#SVGID_1_)" d="M175.7,24.5C171.2,5.4,154-8.9,133.4-8.9C112.6-8.9,95.1,5.8,91,25.5l9.2-5.2l5.1,3.5
				c0,0,3-1.3,3.6-1.7l3.7,3.8c0,0,7.9,6.3,8.2,6.3c0.2,0,7-3.9,7-3.9l6.1-4.2l5.3,3.8l4,0.8l4,2.8c0,0,9.8-6.5,11.4-7.3
				c0,0,4.3,1.6,4.7,1.5c0.4-0.1,7.1-5.3,7.1-5.3L175.7,24.5z"/>
			
				<radialGradient id="SVGID_2_" cx="82.9911" cy="34.4401" r="43.3982" gradientTransform="matrix(0.9145 0 0 1 57.5688 0)" gradientUnits="userSpaceOnUse">
				<stop  offset="0.53" style="stop-color:#FFFFFF"/>
				<stop  offset="0.5983" style="stop-color:#FFF7E9"/>
				<stop  offset="0.7402" style="stop-color:#FFE3B0"/>
				<stop  offset="0.77" style="stop-color:#FFDFA3"/>
				<stop  offset="0.8036" style="stop-color:#FFD991"/>
				<stop  offset="0.8709" style="stop-color:#FFC961"/>
				<stop  offset="0.88" style="stop-color:#FFC75A"/>
				<stop  offset="0.91" style="stop-color:#FEC34A"/>
				<stop  offset="0.9657" style="stop-color:#FDBE32"/>
				<stop  offset="1" style="stop-color:#FDBC29"/>
			</radialGradient>
			<path fill="url(#SVGID_2_)" d="M133.9,12.2c0.4,0,0.9,0,1.3,0l1.5-21.1c-1.1-0.1-2.1-0.1-3.2-0.1c-0.7,0-1.4,0-2.1,0.1l1,21.2
				C132.9,12.3,133.4,12.2,133.9,12.2z"/>
			
				<radialGradient id="SVGID_3_" cx="65.7198" cy="-241.915" r="43.4588" gradientTransform="matrix(0.8479 -0.3426 0.3746 0.9272 168.36 281.2586)" gradientUnits="userSpaceOnUse">
				<stop  offset="0.53" style="stop-color:#FFFFFF"/>
				<stop  offset="0.5983" style="stop-color:#FFF7E9"/>
				<stop  offset="0.7402" style="stop-color:#FFE3B0"/>
				<stop  offset="0.77" style="stop-color:#FFDFA3"/>
				<stop  offset="0.8036" style="stop-color:#FFD991"/>
				<stop  offset="0.8709" style="stop-color:#FFC961"/>
				<stop  offset="0.88" style="stop-color:#FFC75A"/>
				<stop  offset="0.91" style="stop-color:#FEC34A"/>
				<stop  offset="0.9657" style="stop-color:#FDBE32"/>
				<stop  offset="1" style="stop-color:#FDBC29"/>
			</radialGradient>
			<path fill="url(#SVGID_3_)" d="M126.7,13.4l-6.5-20.3c-1.7,0.5-3.3,1.2-4.9,1.9l9,19.4C125,14.1,125.8,13.7,126.7,13.4z"/>
			
				<radialGradient id="SVGID_4_" cx="158.5255" cy="-495.3669" r="43.4654" gradientTransform="matrix(0.6578 -0.6352 0.6947 0.7193 373.3161 491.4523)" gradientUnits="userSpaceOnUse">
				<stop  offset="0.53" style="stop-color:#FFFFFF"/>
				<stop  offset="0.5983" style="stop-color:#FFF7E9"/>
				<stop  offset="0.7402" style="stop-color:#FFE3B0"/>
				<stop  offset="0.77" style="stop-color:#FFDFA3"/>
				<stop  offset="0.8036" style="stop-color:#FFD991"/>
				<stop  offset="0.8709" style="stop-color:#FFC961"/>
				<stop  offset="0.88" style="stop-color:#FFC75A"/>
				<stop  offset="0.91" style="stop-color:#FEC34A"/>
				<stop  offset="0.9657" style="stop-color:#FDBE32"/>
				<stop  offset="1" style="stop-color:#FDBC29"/>
			</radialGradient>
			<path fill="url(#SVGID_4_)" d="M119.5,17.6L105.7,1.1c-1.4,1.1-2.7,2.4-3.9,3.7l15.7,14.7C118.1,18.8,118.8,18.2,119.5,17.6z"/>
			<radialGradient id="SVGID_5_" cx="133.463" cy="34.4422" r="43.4321" gradientUnits="userSpaceOnUse">
				<stop  offset="0.53" style="stop-color:#FFFFFF"/>
				<stop  offset="0.5983" style="stop-color:#FFF7E9"/>
				<stop  offset="0.7402" style="stop-color:#FFE3B0"/>
				<stop  offset="0.77" style="stop-color:#FFDFA3"/>
				<stop  offset="0.8036" style="stop-color:#FFD991"/>
				<stop  offset="0.8709" style="stop-color:#FFC961"/>
				<stop  offset="0.88" style="stop-color:#FFC75A"/>
				<stop  offset="0.91" style="stop-color:#FEC34A"/>
				<stop  offset="0.9657" style="stop-color:#FDBE32"/>
				<stop  offset="1" style="stop-color:#FDBC29"/>
			</radialGradient>
			<path fill="url(#SVGID_5_)" d="M114.4,23.9l-19-10.2c-0.7,1.3-1.8,3.5-2.3,4.8l20.2,7.8C113.6,25.5,114,24.7,114.4,23.9z"/>
			
				<radialGradient id="SVGID_6_" cx="213.2234" cy="287.8731" r="43.4218" gradientTransform="matrix(0.8479 0.3426 -0.3746 0.9272 60.5091 -305.5277)" gradientUnits="userSpaceOnUse">
				<stop  offset="0.53" style="stop-color:#FFFFFF"/>
				<stop  offset="0.5983" style="stop-color:#FFF7E9"/>
				<stop  offset="0.7402" style="stop-color:#FFE3B0"/>
				<stop  offset="0.77" style="stop-color:#FFDFA3"/>
				<stop  offset="0.8036" style="stop-color:#FFD991"/>
				<stop  offset="0.8709" style="stop-color:#FFC961"/>
				<stop  offset="0.88" style="stop-color:#FFC75A"/>
				<stop  offset="0.91" style="stop-color:#FEC34A"/>
				<stop  offset="0.9657" style="stop-color:#FDBE32"/>
				<stop  offset="1" style="stop-color:#FDBC29"/>
			</radialGradient>
			<path fill="url(#SVGID_6_)" d="M143.4,14.4l9.3-18.9c-1.6-0.8-3.2-1.5-4.9-2.1l-6.9,19.9C141.7,13.7,142.6,14,143.4,14.4z"/>
			
				<radialGradient id="SVGID_7_" cx="441.7577" cy="485.8967" r="43.3269" gradientTransform="matrix(0.6578 0.6352 -0.6947 0.7193 180.4269 -595.6682)" gradientUnits="userSpaceOnUse">
				<stop  offset="0.53" style="stop-color:#FFFFFF"/>
				<stop  offset="0.5983" style="stop-color:#FFF7E9"/>
				<stop  offset="0.7402" style="stop-color:#FFE3B0"/>
				<stop  offset="0.77" style="stop-color:#FFDFA3"/>
				<stop  offset="0.8036" style="stop-color:#FFD991"/>
				<stop  offset="0.8709" style="stop-color:#FFC961"/>
				<stop  offset="0.88" style="stop-color:#FFC75A"/>
				<stop  offset="0.91" style="stop-color:#FEC34A"/>
				<stop  offset="0.9657" style="stop-color:#FDBE32"/>
				<stop  offset="1" style="stop-color:#FDBC29"/>
			</radialGradient>
			<path fill="url(#SVGID_7_)" d="M150.1,19.3l15.6-13.9c-1.2-1.3-2.4-2.5-3.8-3.7l-13.8,15.7C148.8,18,149.4,18.7,150.1,19.3z"/>
			
				<radialGradient id="SVGID_8_" cx="733.2762" cy="593.9681" r="43.2682" gradientTransform="matrix(0.3719 0.8354 -0.9135 0.4067 403.3494 -819.7068)" gradientUnits="userSpaceOnUse">
				<stop  offset="0.53" style="stop-color:#FFFFFF"/>
				<stop  offset="0.5983" style="stop-color:#FFF7E9"/>
				<stop  offset="0.7402" style="stop-color:#FFE3B0"/>
				<stop  offset="0.77" style="stop-color:#FFDFA3"/>
				<stop  offset="0.8036" style="stop-color:#FFD991"/>
				<stop  offset="0.8709" style="stop-color:#FFC961"/>
				<stop  offset="0.88" style="stop-color:#FFC75A"/>
				<stop  offset="0.91" style="stop-color:#FEC34A"/>
				<stop  offset="0.9657" style="stop-color:#FDBE32"/>
				<stop  offset="1" style="stop-color:#FDBC29"/>
			</radialGradient>
			<path fill="url(#SVGID_8_)" d="M154.5,26.5l19.6-7.1c-0.6-1.7-1.3-3.3-2.1-4.8L153.4,24C153.8,24.8,154.2,25.6,154.5,26.5z"/>
			<radialGradient id="SVGID_9_" cx="133.3765" cy="34.4563" r="43.4062" gradientUnits="userSpaceOnUse">
				<stop  offset="0.72" style="stop-color:#FFFFFF"/>
				<stop  offset="0.8086" style="stop-color:#FFF8ED"/>
				<stop  offset="0.9864" style="stop-color:#FFE6BD"/>
				<stop  offset="1" style="stop-color:#FFE5B9"/>
			</radialGradient>
			<path fill="url(#SVGID_9_)" d="M127.6,28.3l6.1-4.2l5.3,3.8l4,0.8l4,2.8c0,0,4.4-2.9,7.8-5.1c-0.6-1.5-1.3-3-2.2-4.3l14.6-11.3
				l-15.6,10c-1.4-1.8-3.1-3.4-5-4.7l9.2-15.7l-10.5,14.9c-2-1.2-4.1-2.1-6.4-2.6l2.6-18.1l-4.2,17.8c-1.1-0.2-2.3-0.3-3.5-0.3
				c-1.3,0-2.5,0.1-3.7,0.3l-4.2-17.8l2.6,18.2c-2.3,0.5-4.4,1.4-6.3,2.6l-10.6-15l9.2,15.8c-1.9,1.3-3.5,2.9-4.9,4.7l-15.7-10.1
				l14.8,11.4c-0.9,1.3-1.6,2.7-2.1,4.2c1.8,1.4,7.4,5.8,7.6,5.8C120.8,32.2,127.6,28.3,127.6,28.3z"/>
			<path fill="#004B8D" d="M175.6,24.2l-5.6-4c0,0-6.7,5.2-7.1,5.3s-4.7-1.5-4.7-1.5c-1.6,0.8-11.4,7.3-11.4,7.3l-4-2.7l-4-0.8
				l-5.3-3.8l-6.1,4.2c0,0-6.8,3.9-7,3.9c-0.2,0-8.2-6.3-8.2-6.3l-3.7-3.8c-0.6,0.4-3.6,1.7-3.6,1.7l-5.1-3.5L91,25.2
				c-0.6,3-1,6.1-1,9.2c0,2.8,0.3,5.5,0.8,8.1c3.8-0.7,10.8-1.7,16.5-1c8.4,1.1,13.6,2.5,22.5,4.5c8.9,2,15.4,3.9,25,2.8
				c9-1,15.4-2.8,21.4-7.1c0.4-2.4,0.6-4.9,0.6-7.4C176.8,30.9,176.4,27.5,175.6,24.2z"/>
		</g>
	</g>
	<g>
		<rect x="197.4" y="47.1" fill="#E3A82B" width="98.2" height="1.9"/>
	</g>
	<path fill="#004B8D" d="M200.1,5.4c0-2-0.1-2.5-1.5-2.6l-0.9-0.1c-0.2-0.1-0.1-0.7,0-0.7c1.6-0.1,3.6-0.2,6.4-0.2
		c1.9,0,3.7,0.1,5,0.8c1.3,0.6,2.3,1.6,2.3,3.4c0,1.9-1.3,2.9-3.1,3.7c0,0.3,0.2,0.4,0.6,0.4c1.6,0.3,4,1.6,4,4.5
		c0,3.1-2.6,5.2-7.9,5.2c-0.9,0-2.3-0.1-3.6-0.1c-1.3,0-2.3,0-3.4,0.1c-0.2-0.1-0.2-0.5-0.1-0.7l0.5-0.1c1.6-0.2,1.6-0.5,1.6-3.4
		L200.1,5.4L200.1,5.4z M202.6,9c0,0.8,0,0.8,1.6,0.8c3-0.1,4.7-0.9,4.7-3.4c0-2.6-2.2-3.6-4.5-3.6c-0.7,0-1.1,0.1-1.4,0.2
		c-0.3,0.1-0.4,0.2-0.4,0.7L202.6,9L202.6,9z M202.6,15.2c0,1,0.1,2.3,0.6,2.9c0.6,0.6,1.5,0.8,2.4,0.8c2.7,0,4.7-1.1,4.7-3.8
		c0-2.1-1.2-4.6-5.9-4.6c-1.6,0-1.7,0.2-1.7,0.7V15.2z"/>
	<path fill="#004B8D" d="M233.8,8.1c0-2.4-0.1-2.8-1.6-2.9l-0.6,0c-0.2-0.1-0.1-0.5,0.1-0.6c1.3,0,2.1,0.1,3.2,0.1
		c1,0,1.9,0,3.2-0.1c0.2,0.1,0.2,0.5,0.1,0.6l-0.6,0c-1.5,0.1-1.6,0.5-1.6,2.9v8.2c0,2.4,0.1,2.8,1.6,2.9l0.6,0.1
		c0.2,0.1,0.1,0.5-0.1,0.6c-1.3,0-2.1-0.1-3.2-0.1c-1.1,0-1.9,0-3.2,0.1c-0.2-0.1-0.2-0.4-0.1-0.6l0.6-0.1c1.5-0.2,1.6-0.5,1.6-2.9
		V8.1z"/>
	<path fill="#004B8D" d="M247.9,16.3c0,2.4,0,2.8,1.4,2.9l0.8,0.1c0.1,0.1,0.1,0.5-0.1,0.6c-1.4,0-2.2-0.1-3.1-0.1
		c-1,0-1.8,0-3.3,0.1c-0.1-0.1-0.2-0.5,0-0.6l0.9-0.1c1.4-0.1,1.5-0.5,1.5-2.9V6c0-0.7,0-0.7-0.7-0.7h-1.3c-1,0-2.3,0-2.9,0.6
		c-0.6,0.5-0.8,1-1.1,1.6c-0.2,0.1-0.5,0-0.6-0.2c0.4-1,0.7-2.5,0.9-3.4c0.1,0,0.4-0.1,0.5,0c0.1,0.7,0.9,0.7,2,0.7h9.7
		c1.3,0,1.5,0,1.9-0.6c0.1,0,0.4,0,0.4,0.1c-0.3,0.9-0.4,2.8-0.4,3.5c-0.1,0.2-0.5,0.2-0.6,0c-0.1-0.6-0.2-1.4-0.6-1.7
		c-0.6-0.4-1.5-0.6-2.8-0.6h-1.7c-0.7,0-0.7,0-0.7,0.8L247.9,16.3L247.9,16.3z"/>
	<path fill="#004B8D" d="M258.2,8.1c0-2.4-0.1-2.8-1.6-2.9l-0.6,0c-0.2-0.1-0.1-0.5,0.1-0.6c1.3,0,2.1,0.1,3.2,0.1
		c1,0,1.9,0,3.2-0.1c0.2,0.1,0.2,0.5,0.1,0.6l-0.6,0c-1.5,0.1-1.6,0.5-1.6,2.9v8.2c0,2.4,0.1,2.8,1.6,2.9l0.6,0.1
		c0.2,0.1,0.1,0.5-0.1,0.6c-1.3,0-2.1-0.1-3.2-0.1c-1.1,0-1.9,0-3.2,0.1c-0.2-0.1-0.2-0.4-0.1-0.6l0.6-0.1c1.5-0.2,1.6-0.5,1.6-2.9
		V8.1z"/>
	<path fill="#004B8D" d="M269.6,20.1c-2.3,0-3.7-0.6-4.2-0.9c-0.3-0.5-0.7-2.1-0.7-3.2c0.1-0.2,0.5-0.2,0.6-0.1
		c0.4,1.2,1.5,3.4,4.7,3.4c2.3,0,3.4-1.3,3.4-2.6c0-1-0.2-2.1-2.2-3.2l-2.6-1.4c-1.4-0.8-2.9-2.1-2.9-4c0-2.2,2-4,5.5-4
		c0.8,0,1.8,0.1,2.5,0.3c0.4,0.1,0.7,0.1,1,0.1c0.2,0.6,0.5,1.8,0.5,2.8c-0.1,0.1-0.5,0.2-0.7,0.1c-0.4-1.1-1.1-2.6-3.7-2.6
		c-2.7,0-3.2,1.5-3.2,2.6c0,1.3,1.3,2.3,2.3,2.8l2.2,1.1c1.7,0.9,3.4,2.2,3.4,4.4C275.4,18.3,273.1,20.1,269.6,20.1z"/>
	<path fill="#004B8D" d="M283.3,12.3c-1.2,0-1.2,0-1.2,0.7v3.2c0,2.4,0.1,2.7,1.5,2.9l0.7,0.1c0.1,0.1,0.1,0.5,0,0.6
		c-1.3,0-2.2-0.1-3.1-0.1c-1.1,0-1.9,0-2.9,0.1c-0.1-0.1-0.2-0.4-0.1-0.6l0.4-0.1c1.4-0.2,1.4-0.5,1.4-2.9V8c0-2.4-0.2-2.8-1.5-2.9
		l-0.6,0c-0.1-0.1-0.1-0.5,0-0.6c1.2,0,2.1,0.1,3.1,0.1c1,0,1.8,0,2.9-0.1c0.1,0.1,0.2,0.5,0,0.6l-0.5,0C282.1,5.3,282,5.6,282,8
		v2.6c0,0.7,0.1,0.7,1.2,0.7h7.1c1.2,0,1.2,0,1.2-0.7V8c0-2.4,0-2.8-1.5-2.9l-0.5,0c-0.1-0.1-0.1-0.5,0-0.6c1.1,0,2,0.1,3,0.1
		c1,0,1.8,0,2.9-0.1c0.1,0.1,0.2,0.5,0,0.6l-0.5,0c-1.4,0.1-1.5,0.5-1.5,2.9v8.3c0,2.4,0,2.7,1.5,2.9l0.6,0.1c0.1,0.1,0.1,0.5,0,0.6
		c-1.2,0-2-0.1-3-0.1c-1,0-1.9,0-3,0.1c-0.2-0.1-0.2-0.4-0.1-0.6l0.5-0.1c1.5-0.2,1.5-0.5,1.5-2.9v-3.2c0-0.7-0.1-0.7-1.2-0.7H283.3
		z"/>
	<path fill="#004B8D" d="M186,24.9c2-1.6,4.6-2.4,7.5-2.4c1.5,0,3.6,0.3,4.9,0.7c0.3,0.1,0.5,0.1,0.8,0.1c0,0.6,0.2,2.4,0.4,4.1
		c-0.1,0.2-0.6,0.2-0.8,0.1c-0.4-1.9-1.7-4.1-5.7-4.1c-4.3,0-7.9,2.7-7.9,8.4c0,5.8,3.7,9.1,8.3,9.1c3.6,0,5.2-2.3,5.8-4
		c0.2-0.1,0.6-0.1,0.7,0.1c-0.2,1.4-0.9,3.3-1.3,3.8c-0.3,0.1-0.7,0.2-1,0.3c-0.6,0.2-2.6,0.6-4.4,0.6c-2.5,0-4.9-0.5-6.9-1.9
		c-2.2-1.5-4-4.1-4-7.6C182.5,29.1,183.9,26.5,186,24.9z"/>
	<path fill="#004B8D" d="M201.2,33.9c0-4.6,3.6-8.1,8.6-8.1c5.6,0,8.4,3.8,8.4,7.9c0,4.6-3.7,8-8.4,8
		C204.4,41.6,201.2,38,201.2,33.9z M215.8,34.3c0-3.8-1.8-7.9-6.4-7.9c-2.5,0-5.8,1.6-5.8,6.7c0,3.4,1.7,7.8,6.5,7.8
		C213,40.9,215.8,38.9,215.8,34.3z"/>
	<path fill="#004B8D" d="M245.4,31.9c0-1.4-0.1-4.1-0.5-4.8c-0.2-0.3-0.6-0.4-1.2-0.5l-0.6,0c-0.1-0.2-0.1-0.5,0-0.6
		c0.9,0,1.8,0.1,2.8,0.1c1,0,1.7,0,2.6-0.1c0.2,0.1,0.2,0.4,0,0.6l-0.6,0c-0.6,0-1.1,0.3-1.2,0.6c-0.3,0.8-0.3,3.4-0.3,4.7v2.6
		c0,2-0.3,4.1-1.7,5.5c-1.1,1.1-2.9,1.7-4.7,1.7c-1.7,0-3.4-0.3-4.6-1.3c-1.3-1-1.9-2.7-1.9-5.4v-5.4c0-2.4,0-2.8-1.5-2.9l-0.6,0
		c-0.1-0.1-0.1-0.5,0-0.6c1.2,0,2,0.1,3,0.1c1,0,1.8,0,3-0.1c0.1,0.1,0.2,0.5,0,0.6l-0.6,0c-1.4,0.1-1.5,0.5-1.5,2.9v5
		c0,3.7,1.2,6.1,4.9,6.1c3.5,0,4.9-2.6,4.9-6.1L245.4,31.9L245.4,31.9z"/>
	<path fill="#004B8D" d="M273.8,29c0-1.7-0.1-2.2-1.3-2.3l-0.9-0.1c-0.1-0.1-0.2-0.6,0-0.6c1.5-0.1,3.3-0.2,5.8-0.2
		c1.7,0,3.3,0.1,4.5,0.6c1.2,0.5,2,1.4,2,2.9c0,1.7-1.1,2.5-2.7,3.2c0,0.2,0.2,0.3,0.5,0.3c1.5,0.2,3.6,1.4,3.6,3.9
		c0,2.7-2.3,4.5-7.2,4.5c-0.8,0-2.1-0.1-3.2-0.1c-1.2,0-2.1,0-3.1,0.1c-0.2-0.1-0.2-0.4-0.1-0.6l0.5-0.1c1.4-0.2,1.5-0.5,1.5-2.9
		L273.8,29L273.8,29z M276,32.1c0,0.7,0,0.7,1.4,0.7c2.8-0.1,4.2-0.8,4.2-3c0-2.3-2-3.1-4-3.1c-0.6,0-1,0-1.2,0.1
		c-0.3,0.1-0.4,0.2-0.4,0.6V32.1z M276,37.5c0,0.8,0.1,2,0.6,2.5c0.5,0.5,1.3,0.6,2.1,0.6c2.4,0,4.2-0.9,4.2-3.2c0-1.8-1.1-4-5.4-4
		c-1.5,0-1.6,0.1-1.6,0.6V37.5L276,37.5z"/>
	<g>
		<path fill="#004B8D" d="M229.8,19.2l-0.6-0.1c-0.1,0-0.2,0-0.4,0c-0.9-0.2-1.3-1-1.7-1.8l-2.2-3.8c-0.4-0.6-0.8-1.5-1.7-1.6
			c2.3-0.3,4.3-1.6,4.3-3.8c0-2.6-2.6-3.7-5.1-3.7c-1.6,0-3,0-4.6,0c-0.9,0-1.9,0-2.8,0c-0.5,0-0.5,0.1-0.5,0.4
			c0,0.4,0.2,0.3,0.7,0.3c1.8,0.1,1.8,0.4,1.8,2v10.1c0,1.4,0.1,1.9-1.4,2c0,0-0.2,0-0.4,0l-0.6,0.1c-0.2,0.1-0.1,0.5,0,0.6
			c0.3,0,0.9,0,0.9,0c0.8,0,1.7-0.1,2.5-0.1c0.8,0,1.6,0.1,2.5,0.1l0,0c0.3,0,0.6,0,0.9,0c0.2-0.1,0.2-0.4,0.1-0.6l-0.6-0.1
			c-0.1,0-0.4,0-0.4,0c-1.5-0.1-1.4-0.5-1.4-2v-3.8c0-0.2,0-0.8,0.1-1c0.1-0.1,0.4-0.1,0.6-0.1c2.1,0,2,0.2,3,1.9l2.7,4.8
			c0.2,0.4,0.4,0.8,0.9,0.8h2.3c0.3,0,0.6,0,0.9,0C229.9,19.8,230,19.4,229.8,19.2z M220.5,11.7c-0.5,0-1.4,0.2-1.4-0.4V6.8
			c0-1.7,0.1-2,2.1-2c2.4,0,3.9,1.2,3.9,3.5c0,1-0.4,1.9-1.3,2.5C222.9,11.6,221.8,11.7,220.5,11.7z"/>
	</g>
	<g>
		<path fill="#004B8D" d="M221,29.6c0-2.4-0.1-2.8-1.6-2.9l-0.6,0c-0.1-0.1-0.1-0.5,0.1-0.6c1.4,0,2.3,0.1,3.3,0.1
			c1,0,1.8,0,3.1-0.1c0.1,0.1,0.2,0.5,0.1,0.6l-0.6,0c-1.5,0.1-1.5,0.5-1.5,2.9v8c0,1.5,0.1,2,0.5,2.5c0.3,0.3,0.8,0.5,2.8,0.5
			c2.1,0,2.7-0.1,3.1-0.3c0.5-0.3,1.2-1.1,1.7-2.3c0.2-0.1,0.6,0,0.6,0.1c0,0.2-0.7,2.6-1.1,3.2c-1.3,0-3.7-0.1-6.3-0.1h-2.3
			c-1.1,0-1.9,0-3.3,0.1c-0.1-0.1-0.2-0.4-0.1-0.6l0.8-0.1c1.5-0.1,1.5-0.5,1.5-2.9L221,29.6L221,29.6z"/>
		<path fill="#004B8D" d="M288.8,29.7c0-2.4-0.1-2.8-1.5-2.9l-0.6,0c-0.1-0.1-0.1-0.5,0.1-0.6c1.2,0,2.1,0.1,3.1,0.1
			c1,0,1.8,0,3.1-0.1c0.1,0.1,0.2,0.5,0,0.6l-0.6,0c-1.5,0.1-1.5,0.5-1.5,2.9v8.2c0,2.4,0,2.8,1.5,2.9l0.6,0.1
			c0.1,0.1,0.1,0.5,0,0.6c-1.2,0-2.1-0.1-3.1-0.1c-1,0-1.9,0-3.1,0.1c-0.1-0.1-0.2-0.4-0.1-0.6l0.6-0.1c1.5-0.2,1.5-0.5,1.5-2.9
			V29.7z"/>
		<path fill="#004B8D" d="M269,40.8c-0.1,0-0.4,0-0.4,0c-0.3,0-0.5-0.1-0.7-0.3c-0.3-0.3-0.3-1.3-0.3-1.7V28.7
			c0-0.4-0.1-1.4,0.2-1.7c0.2-0.2,0.5-0.2,0.8-0.2v0c0.2,0,0.2,0,0.3,0l0.6,0c0.2-0.1,0.1-0.5-0.1-0.6c-0.3,0-0.7,0-0.9,0l0,0h-2.7
			c-0.3,0-0.6,0-0.7,0.3l-5.5,11.5l-4.9-11.1c-0.2-0.4-0.2-0.7-0.7-0.7h-2.8c-0.3,0-0.6,0-1,0c-0.1,0.1-0.2,0.5-0.1,0.6l0.6,0
			c0.1,0,0.4,0,0.4,0c1.1,0.1,1.1,0.3,1,1.4l-0.8,10.8c-0.1,1.1-0.1,1.7-1.3,1.8c0,0-0.2,0-0.4,0l-0.6,0.1c-0.2,0.1-0.1,0.5,0.1,0.6
			c0.3,0,0.9,0,0.9,0c0.6,0,1.2-0.1,1.7-0.1c0.6,0,1.3,0.1,1.9,0.1l0,0c0.3,0,0.6,0,0.9,0c0.2-0.1,0.2-0.4,0.1-0.6l-0.6-0.1
			c-0.2,0-0.4,0-0.4,0c-1.6-0.1-1.6-1.3-1.5-2.7l0.8-10.1h0.2l5.3,12.4c0.1,0.2,0.1,0.5,0.4,0.5c0.2,0,0.3-0.3,0.4-0.4l6-12.7h0.2
			v11.1c0,0.4,0.1,1.3-0.4,1.7c-0.2,0.2-1,0.3-1,0.3c-0.1,0-0.2,0-0.3,0l-0.6,0.1c-0.2,0.1-0.1,0.5,0.1,0.6c0.3,0,0.9,0,0.9,0
			c0.9,0,1.7-0.1,2.6-0.1c0.6,0,1.9,0.1,1.9,0.1c0.3,0,0.6,0,1,0.1c0.2-0.1,0.2-0.4,0.1-0.6L269,40.8z"/>
		<g>
			<path fill="#004B8D" d="M310.4,40.8L310.4,40.8c-0.2-0.1-0.3-0.1-0.4-0.1c-1-0.2-1.4-1.4-1.8-2.3l-5.1-12.1
				c-0.1-0.1-0.2-0.5-0.4-0.5c-0.3,0-0.4,0.3-0.4,0.5l-4.9,12.1c-0.2,0.5-0.6,1.6-1,1.9c-0.3,0.3-0.6,0.3-0.9,0.3c0,0-0.3,0-0.4,0
				l-0.6,0.1c-0.2,0.1-0.1,0.5,0.1,0.6c0.3,0,0.9,0,0.9,0c0.7,0,1.3-0.1,2-0.1c0.6,0,1.1,0.1,1.7,0.1c0,0,0.6,0,0.9,0
				c0.2-0.1,0.2-0.4,0.1-0.6l-0.6-0.1c-0.1,0-0.3,0-0.3,0c-0.6-0.1-1.3-0.2-1.3-0.8c0-0.4,0.2-0.9,0.4-1.3l0.8-1.8
				c0.4-0.9,0.2-1,1.2-1h3.4c1.2,0,1,0,1.6,1.2l0.8,1.8c0.1,0.3,0.4,0.8,0.4,1.2c0,0.6-0.7,0.6-1.3,0.7c0,0-0.2,0-0.4,0l-0.6,0
				c-0.2,0.1-0.1,0.5,0.1,0.6c0.3,0,0.9,0,0.9,0c0.7,0,1.4-0.1,2.1-0.1c0.9,0,1.8,0.1,2.7,0.1l0,0c0.3,0,0,0,0.4,0
				C310.5,41.3,310.6,41,310.4,40.8z M303.7,35.1h-3c-0.1,0-0.9,0.1-0.9-0.1c0-0.1,0-0.2,0.1-0.3l1.8-4.4c0.1-0.1,0.2-0.7,0.4-0.7
				c0.2,0,0.4,0.6,0.4,0.7l1.8,4.1c0,0.1,0.2,0.4,0.2,0.5C304.5,35.2,303.9,35.1,303.7,35.1z"/>
		</g>
	</g>
</g>
</svg>
