<?xml version="1.0" encoding="utf-8"?>
<!-- Generator: Adobe Illustrator 18.1.1, SVG Export Plug-In . SVG Version: 6.00 Build 0)  -->
<!DOCTYPE svg PUBLIC "-//W3C//DTD SVG 1.1//EN" "http://www.w3.org/Graphics/SVG/1.1/DTD/svg11.dtd">
<svg version="1.1" id="Layer_2" xmlns="http://www.w3.org/2000/svg" xmlns:xlink="http://www.w3.org/1999/xlink" x="0px" y="0px"
	 width="20px" height="20px" viewBox="-239 241 20 20" enable-background="new -239 241 20 20" xml:space="preserve">
<path fill="#FFCC33" d="M-229,241c-5.5,0-10,4.5-10,10s4.5,10,10,10s10-4.5,10-10S-223.5,241-229,241z M-228.4,256.3
	c-0.5,0.5-1.2,0.6-1.7,0.6c-0.3,0-0.7-0.1-0.9-0.3c-0.3-0.2-0.4-0.5-0.4-0.9c0-0.2,0-0.4,0.2-0.8c0.1-0.2,0.1-0.4,0.2-0.7l0.8-3.8
	v-0.1v-0.1c0-0.2-0.1-0.3-0.2-0.4c-0.2-0.1-0.6-0.1-1-0.1v-0.4c0.3,0,0.6,0,1.2-0.1c0.6,0,1.4-0.2,1.7-0.2l0.7-0.1l-1.1,4.8
	c-0.1,0.5-0.2,0.7-0.2,0.9c-0.1,0.4-0.1,0.7-0.1,0.8c0,0.2,0.1,0.4,0.4,0.4c0.1,0,0.3-0.1,0.6-0.4c0.2-0.3,0.5-0.6,0.7-0.9l0.4,0.2
	C-227.7,255.5-228.1,256-228.4,256.3z M-227.3,247.7c-0.3,0.3-0.6,0.4-1,0.4c-0.4,0-0.7-0.1-1-0.4c-0.3-0.3-0.4-0.6-0.4-1
	c0-0.4,0.1-0.7,0.4-1s0.6-0.4,1-0.4s0.7,0.1,1,0.4c0.3,0.3,0.4,0.6,0.4,1C-226.9,247.1-227,247.4-227.3,247.7z"/>
</svg>
