<?xml version="1.0" encoding="utf-8"?>
<!-- Generator: Adobe Illustrator 18.1.1, SVG Export Plug-In . SVG Version: 6.00 Build 0)  -->
<!DOCTYPE svg PUBLIC "-//W3C//DTD SVG 1.1//EN" "http://www.w3.org/Graphics/SVG/1.1/DTD/svg11.dtd">
<svg version="1.1" id="Layer_2" xmlns="http://www.w3.org/2000/svg" xmlns:xlink="http://www.w3.org/1999/xlink" x="0px" y="0px"
	 width="14px" height="14px" viewBox="-242 244 14 14" enable-background="new -242 244 14 14" xml:space="preserve">
<g>
	<circle fill="#E2A73A" cx="-235" cy="251" r="7"/>
	<g>
		<path fill="#FFFFFF" d="M-234.1,250.9l1.8-1.7c0.2-0.2,0.2-0.6,0-0.9c-0.2-0.2-0.6-0.2-0.9,0l-1.8,1.7l-1.7-1.7
			c-0.2-0.2-0.6-0.2-0.9,0c-0.2,0.2-0.2,0.6,0,0.9l1.7,1.8l-1.7,1.7c-0.2,0.2-0.2,0.6,0,0.9c0.1,0.1,0.3,0.2,0.4,0.2
			c0.2,0,0.3-0.1,0.4-0.2l1.8-1.7l1.7,1.8c0.1,0.1,0.3,0.2,0.4,0.2c0.2,0,0.3-0.1,0.4-0.2c0.2-0.2,0.2-0.6,0-0.9L-234.1,250.9z"/>
	</g>
</g>
</svg>
