<?xml version="1.0" encoding="utf-8"?>
<!-- Generator: Adobe Illustrator 18.0.0, SVG Export Plug-In . SVG Version: 6.00 Build 0)  -->
<!DOCTYPE svg PUBLIC "-//W3C//DTD SVG 1.1//EN" "http://www.w3.org/Graphics/SVG/1.1/DTD/svg11.dtd">
<svg version="1.1" id="Layer_1" xmlns="http://www.w3.org/2000/svg" xmlns:xlink="http://www.w3.org/1999/xlink" x="0px" y="0px"
	 width="160px" height="54px" viewBox="0 0 160 54" style="enable-background:new 0 0 160 54;" xml:space="preserve">
<style type="text/css">
	.st0{fill:#A7A9AC;}
	.st1{fill:#004B8D;}
	.st2{fill:#6EC068;}
	.st3{fill:#FFFFFF;}
</style>
<g>
	<rect x="88.5" y="3.9" class="st0" width="0.4" height="46.2"/>
	<path class="st1" d="M100.5,11c0.9-0.2,2.1-0.3,3.4-0.3c1.4,0,2.8,0.2,3.9,1.1c0.8,0.7,1.2,1.7,1.2,2.7c0,1.3-0.7,2.6-2.2,3.3v0.1
		c1.8,0.5,2.7,1.9,2.7,3.6c0,1.2-0.4,2.2-1.1,2.9c-0.9,1-2.5,1.5-5,1.5c-1.1,0-2.1-0.1-2.8-0.2V11 M103.5,16.9h0.6
		c1.1,0,1.9-0.9,1.9-2.1c0-1.1-0.5-1.9-1.7-1.9c-0.3,0-0.6,0-0.8,0.1V16.9z M103.5,23.6c0.2,0,0.4,0,0.7,0c1.2,0,2.2-0.7,2.2-2.2
		c0-1.5-1-2.3-2.2-2.3h-0.6V23.6z"/>
	<path class="st1" d="M118.8,25.5c-0.4,0.2-1.3,0.4-2.3,0.4c-3.9,0-5.8-3.1-5.8-7.4c0-5.7,3.2-7.9,6.2-7.9c1,0,1.8,0.2,2.1,0.4
		l-0.5,2.4c-0.3-0.2-0.7-0.3-1.4-0.3c-1.7,0-3.2,1.4-3.2,5.1c0,3.6,1.4,5,3.2,5c0.5,0,1.1-0.1,1.4-0.2L118.8,25.5"/>
	<path class="st1" d="M125.4,10.8h3V21c0,4.3-2.1,5-4.3,5c-0.6,0-1.2-0.1-1.5-0.2l0.3-2.4c0.3,0.1,0.6,0.1,1,0.1
		c0.9,0,1.6-0.3,1.6-2.3V10.8"/>
	<path class="st1" d="M139.9,18c0,5.7-2,7.9-5,7.9c-3.5,0-4.9-3.6-4.9-7.7c0-4.1,1.7-7.6,5.1-7.6C138.8,10.6,139.9,14.6,139.9,18
		 M133.2,18.3c0,3.4,0.7,5.1,1.9,5.1c1.3,0,1.8-2.2,1.8-5.3c0-2.6-0.4-5-1.8-5C133.8,13.1,133.2,15,133.2,18.3z"/>
	<path class="st1" d="M141.8,11c0.9-0.2,2.1-0.3,3.4-0.3c1.4,0,2.8,0.2,3.9,1.1c0.8,0.7,1.2,1.7,1.2,2.7c0,1.3-0.7,2.6-2.2,3.3v0.1
		c1.8,0.5,2.7,1.9,2.7,3.6c0,1.2-0.4,2.2-1.1,2.9c-0.9,1-2.5,1.5-5,1.5c-1.1,0-2.1-0.1-2.8-0.2V11 M144.8,16.9h0.6
		c1.1,0,1.9-0.9,1.9-2.1c0-1.1-0.5-1.9-1.7-1.9c-0.3,0-0.6,0-0.8,0.1V16.9z M144.8,23.6c0.2,0,0.4,0,0.7,0c1.2,0,2.2-0.7,2.2-2.2
		c0-1.5-1-2.3-2.2-2.3h-0.6V23.6z"/>
	<path class="st1" d="M152.4,22.8c0.6,0.3,1.7,0.6,2.5,0.6c1.4,0,2.1-0.7,2.1-1.7c0-1.1-0.7-1.6-2-2.4c-2.1-1.2-2.9-2.8-2.9-4.2
		c0-2.4,1.6-4.4,4.8-4.4c1,0,2,0.3,2.4,0.5l-0.5,2.5c-0.4-0.3-1.1-0.5-1.9-0.5c-1.3,0-1.9,0.8-1.9,1.6c0,0.9,0.5,1.4,2.1,2.3
		c2.1,1.2,2.8,2.7,2.8,4.3c0,2.7-2.1,4.5-5.1,4.5c-1.2,0-2.4-0.3-2.9-0.6L152.4,22.8"/>
	<path class="st1" d="M100.5,29.4c0.8-0.2,2-0.3,3.1-0.3c1.8,0,3.2,0.2,4.2,1.2c0.9,0.8,1.3,2,1.3,3.3c0,1.6-0.5,2.8-1.3,3.6
		c-1,1-2.5,1.4-3.7,1.4c-0.2,0-0.4,0-0.6,0v5.6h-3V29.4 M103.5,36.2c0.2,0,0.3,0,0.5,0c1.5,0,2.2-1,2.2-2.4c0-1.3-0.5-2.3-1.9-2.3
		c-0.3,0-0.5,0-0.7,0.1V36.2z"/>
	<polyline class="st1" points="110.9,29.2 113.9,29.2 113.9,41.7 117.8,41.7 117.8,44.2 110.9,44.2 110.9,29.2 	"/>
	<path class="st1" d="M122.2,40.7l-0.7,3.4h-2.9l3.3-15h3.6l3,15h-2.9l-0.7-3.4H122.2 M124.6,38.5l-0.5-3.1
		c-0.2-0.9-0.4-2.4-0.5-3.4h-0.1c-0.2,1-0.4,2.5-0.5,3.4l-0.6,3.1H124.6z"/>
	<path class="st1" d="M130.1,44.2v-15h2.7l2.4,5.9c0.5,1.2,1.2,3.1,1.6,4.4h0c-0.1-1.6-0.3-4.2-0.3-6.9v-3.3h2.6v15h-2.7l-2.3-5.7
		c-0.5-1.3-1.2-3.2-1.6-4.5h0c0.1,1.5,0.2,3.8,0.2,6.9v3.4H130.1"/>
	<polyline class="st2" points="0,33.6 11.3,35.2 11.3,18.9 0,20.5 0,33.6 	"/>
	<polyline class="st2" points="0,18.4 11.3,16.4 11.3,0.1 0,5.2 0,18.4 	"/>
	<polyline class="st2" points="0,48.9 11.3,54 11.3,37.7 0,35.7 0,48.9 	"/>
	<polyline class="st2" points="25.9,19.4 13.5,18.8 13.5,35.1 25.9,34.6 25.9,19.4 	"/>
	<polyline class="st2" points="68.3,8.1 68.3,19.6 76.9,20.1 76.9,9.3 68.3,8.1 	"/>
	<path class="st1" d="M66.1,7.8L13.4,0v16.3l52.7,3.3V7.8 M28,19.5v15l48.9-2V21.9L28,19.5z M13.4,53.9l41.5-5.8V35.5l-41.5,2.2
		V53.9z"/>
	<path class="st3" d="M18.6,9.6V7.7c0-2.8,1.4-4.2,3.2-4c1.6,0.2,2.9,1.4,2.9,3.9l-1.9-0.2c-0.1-1.1-0.4-1.6-1.1-1.7
		c-0.8-0.1-1.3,0.6-1.3,2.2v2c0,1.6,0.5,2.3,1.3,2.4c0.6,0.1,1.1-0.3,1.2-1.5l1.8,0.2c-0.1,2.4-1.2,3.5-3,3.3
		C19.8,14.2,18.6,12.5,18.6,9.6"/>
	<path class="st3" d="M29.8,12.7l-2-0.2l-0.3,2l-1.7-0.1l1.9-9.8L30.2,5l1.9,9.9l-1.9-0.1L29.8,12.7 M28.1,10.9l1.4,0.1l-0.7-4.1
		L28.1,10.9z"/>
	<polyline class="st3" points="33.6,5.5 35.6,5.7 37.7,11.3 37.7,6 39.3,6.2 39.3,15.5 37.5,15.3 35.2,9.1 35.2,15.2 33.6,15 
		33.6,5.5 	"/>
	<path class="st3" d="M44.9,14.1l-2-0.2l-0.3,1.8l-1.7-0.1l1.9-8.9L45.3,7l1.9,9l-1.9-0.1L44.9,14.1 M43.2,12.4l1.4,0.1l-0.7-3.7
		L43.2,12.4z"/>
	<path class="st3" d="M51.1,7.8c2.2,0.3,3.4,1.6,3.4,4V13c0,2.3-1.2,3.5-3.4,3.3l-2.4-0.2V7.5L51.1,7.8 M50.5,9.4v5.3l0.5,0
		c1,0.1,1.5-0.5,1.5-1.9v-1.2c0-1.4-0.4-2-1.5-2.2L50.5,9.4z"/>
	<path class="st3" d="M59.5,15.3l-2-0.2l-0.3,1.7l-1.7-0.1l1.9-8.1L59.9,9l1.9,8.2L59.8,17L59.5,15.3 M57.8,13.8l1.4,0.1l-0.7-3.4
		L57.8,13.8z"/>
	<path class="st3" d="M33.7,28.8l1.8,0c0,0.9,0.3,1.3,1,1.3c0.5,0,0.9-0.4,0.9-1c0-0.7-0.3-1-1.3-1.2c-1.5-0.5-2.3-1.3-2.3-3.1
		c0-1.7,1-2.8,2.6-2.8c1.6,0.1,2.5,1,2.6,2.9l-1.7,0c-0.1-0.8-0.4-1.1-0.9-1.1c-0.5,0-0.8,0.3-0.8,0.8c0,0.6,0.2,0.9,1.2,1.2
		c1.4,0.4,2.4,1,2.4,3c0,1.8-1,2.9-2.7,3C34.7,31.9,33.8,30.9,33.7,28.8"/>
	<polyline class="st3" points="42.1,24.2 40.4,24.2 40.4,22.4 45.6,22.5 45.6,24.3 43.9,24.2 43.9,31.5 42.1,31.6 42.1,24.2 	"/>
	<path class="st3" d="M50.2,29.6l-2,0l-0.3,1.8l-1.7,0l1.9-8.8l2.5,0.1l1.9,8.6l-1.9,0L50.2,29.6 M48.5,28.1l1.4,0l-0.7-3.6
		L48.5,28.1z"/>
	<path class="st3" d="M54,22.8l2.5,0.1c1.8,0.1,2.7,0.9,2.7,2.4v0.4c0,1.1-0.5,1.6-1.1,1.9l1.5,3.5l-1.9,0L56.4,28h-0.5v3.2l-1.9,0
		V22.8 M56.5,26.6c0.6,0,1-0.3,1-0.9v-0.3c0-0.6-0.3-0.9-0.9-0.9l-0.6,0v2.2L56.5,26.6z"/>
	<polyline class="st3" points="62.1,24.6 60.5,24.6 60.5,23 65.7,23.2 65.7,24.7 64,24.7 64,31 62.1,31.1 62.1,24.6 	"/>
	<path class="st3" d="M66.5,28.6l1.6,0c0,0.7,0.2,1,0.9,1c0.5,0,0.7-0.3,0.7-0.8c0-0.6-0.3-0.8-1.1-1c-1.3-0.4-2-1-2-2.4
		c0-1.4,0.9-2.2,2.3-2.2c1.4,0.1,2.2,0.8,2.3,2.3l-1.5,0c-0.1-0.7-0.3-0.9-0.8-0.9c-0.4,0-0.7,0.2-0.7,0.6c0,0.5,0.2,0.7,1,0.9
		c1.2,0.3,2.1,0.8,2.1,2.4c0,1.4-0.9,2.3-2.4,2.4C67.4,31,66.6,30.2,66.5,28.6"/>
	<polyline class="st3" points="22.1,39.6 23.9,39.5 23.9,43.4 26,43.3 26,39.3 27.8,39.2 27.8,49.1 26,49.4 26,45.3 23.9,45.5 
		23.9,49.6 22.1,49.8 22.1,39.6 	"/>
	<polyline class="st3" points="29.8,39.1 34.2,38.7 34.2,40.6 31.7,40.8 31.7,42.8 33.7,42.6 33.7,44.3 31.7,44.5 31.7,46.8 
		34.3,46.5 34.3,48.3 29.8,48.9 29.8,39.1 	"/>
	<path class="st3" d="M36,38.6l2.5-0.2c1.8-0.1,2.7,0.7,2.7,2.5v0.4c0,1.2-0.5,1.9-1.1,2.3l1.5,3.8l-1.9,0.2l-1.3-3.4l-0.5,0.1v3.6
		L36,48.1V38.6 M38.5,42.7c0.6-0.1,1-0.4,1-1.1v-0.4c0-0.7-0.3-1-1-0.9l-0.6,0v2.5L38.5,42.7z"/>
	<polyline class="st3" points="43.1,38.1 47.5,37.8 47.5,39.5 44.9,39.7 44.9,41.6 46.9,41.4 46.9,43 44.9,43.2 44.9,45.2 
		47.6,44.9 47.6,46.6 43.1,47.2 43.1,38.1 	"/>
	<polyline class="st2" points="57,35.3 57,47.8 76.9,45 76.9,34.2 57,35.3 	"/>
</g>
</svg>
