<?xml version="1.0" encoding="utf-8"?>
<!-- Generator: Adobe Illustrator 18.1.1, SVG Export Plug-In . SVG Version: 6.00 Build 0)  -->
<svg version="1.1" id="Layer_1" xmlns="http://www.w3.org/2000/svg" xmlns:xlink="http://www.w3.org/1999/xlink" x="0px" y="0px"
	 width="20px" height="20px" viewBox="-28.6 9 20 20" enable-background="new -28.6 9 20 20" xml:space="preserve">
<circle fill="#5BC2E7" cx="-18.6" cy="19" r="10"/>
<path fill="#002855" d="M-20.9,23c0-0.2,0.1-0.4,0.2-0.7l0.8-3.8c0,0,0-0.1,0-0.1c0,0,0-0.1,0-0.1c0-0.2-0.1-0.4-0.2-0.4
	c-0.2-0.1-0.6-0.1-1-0.1v-0.4c0.3,0,0.6-0.1,1.2-0.1c0.6-0.1,1.4-0.2,1.7-0.2l0.7-0.1l-1.1,4.8c-0.1,0.4-0.2,0.7-0.2,0.9
	c-0.1,0.4-0.1,0.7-0.1,0.8c0,0.2,0.2,0.4,0.4,0.4c0.2,0,0.4-0.2,0.6-0.4c0.3-0.3,0.6-0.6,0.7-0.9l0.4,0.2c-0.5,0.8-1,1.3-1.3,1.6
	c-0.5,0.5-1.2,0.6-1.7,0.6c-0.3,0-0.7-0.1-0.9-0.3c-0.2-0.2-0.4-0.5-0.4-0.9C-21,23.5-21,23.3-20.9,23z"/>
<path fill="#002855" d="M-16.9,13.7c0.3,0.3,0.4,0.6,0.4,1s-0.1,0.7-0.4,1c-0.3,0.3-0.6,0.4-1,0.4c-0.4,0-0.7-0.1-1-0.4
	c-0.3-0.3-0.4-0.6-0.4-1s0.1-0.7,0.4-1c0.3-0.3,0.6-0.4,1-0.4C-17.5,13.3-17.2,13.4-16.9,13.7z"/>
</svg>
