<?xml version="1.0" encoding="utf-8"?>
<!-- Generator: Adobe Illustrator 18.1.1, SVG Export Plug-In . SVG Version: 6.00 Build 0)  -->
<svg version="1.1" id="Layer_2" xmlns="http://www.w3.org/2000/svg" xmlns:xlink="http://www.w3.org/1999/xlink" x="0px" y="0px"
	 width="14px" height="14px" viewBox="-12 14 14 14" enable-background="new -12 14 14 14" xml:space="preserve">
<g>
	<circle fill="#5BC2E7" cx="-5" cy="21" r="7"/>
	<g>
		<path fill="#FFFFFF" d="M-4.1,20.9l1.8-1.7c0.2-0.2,0.2-0.6,0-0.9c-0.2-0.2-0.6-0.2-0.9,0L-5,20l-1.7-1.7c-0.2-0.2-0.6-0.2-0.9,0
			c-0.2,0.2-0.2,0.6,0,0.9l1.7,1.8l-1.7,1.7c-0.2,0.2-0.2,0.6,0,0.9c0.1,0.1,0.3,0.2,0.4,0.2c0.2,0,0.3-0.1,0.4-0.2l1.8-1.7l1.7,1.8
			c0.1,0.1,0.3,0.2,0.4,0.2c0.2,0,0.3-0.1,0.4-0.2c0.2-0.2,0.2-0.6,0-0.9L-4.1,20.9z"/>
	</g>
</g>
</svg>
